<svg width="89" height="56" viewBox="0 0 89 56" fill="none" xmlns="http://www.w3.org/2000/svg">
<path d="M88.1506 54.3193C88.3448 58.2644 74.0257 52.7453 74.0257 52.7453C80.802 51.2599 87.4897 52.081 88.1506 54.3193Z" fill="#aaa"/>
<path d="M0.675725 54.3193C0.481533 58.2644 14.8006 52.7453 14.8006 52.7453C8.03116 51.2599 1.3571 52.081 0.675725 54.3193Z" fill="#aaa"/>
<path fill-rule="evenodd" clip-rule="evenodd" d="M75.0001 20.5034C75.0622 20.4853 75.1242 20.4667 75.1859 20.4477C75.5593 21.3585 76.4548 22 77.5001 22C78.8808 22 80.0001 20.8807 80.0001 19.5C80.0001 18.9661 79.8327 18.4713 79.5476 18.0652C79.7912 17.8601 80.0268 17.6458 80.254 17.4229C84.7238 26.3539 84.0492 36.1569 83.5786 40.0614C82.9887 44.9555 84.4325 46.5625 85.8822 48.1761C86.7768 49.1718 87.6736 50.17 88.0961 51.9446C88.1235 52.0676 88.1373 52.1933 88.137 52.3193C87.476 50.081 80.7884 49.26 74.0121 50.7454C74.0121 50.7454 65.6925 51.9446 44.403 51.9446C23.1134 51.9446 14.7904 50.7454 14.7904 50.7454C8.01756 49.2532 1.32646 50.081 0.665527 52.3193C0.673191 52.1931 0.691425 52.0678 0.720037 51.9446C1.14381 50.1702 2.03878 49.172 2.93143 48.1765C4.37828 46.5628 5.81907 44.9559 5.23755 40.0614C4.29725 32.1472 2.50864 0 44.4166 0C50.8463 0 56.2473 0.756718 60.7806 2.06653C59.6502 3.94592 59.0001 6.14695 59.0001 8.49982C58.3928 8.95592 58.0001 9.68209 58.0001 10.5C58.0001 11.3709 58.4454 12.1378 59.1208 12.5854C59.0421 12.8769 59.0001 13.1836 59.0001 13.5C59.0001 15.3764 60.4766 16.9079 62.3311 16.996C64.3017 19.1216 67.0023 20.5608 70.0343 20.915C70.232 22.0982 71.2607 23 72.5001 23C73.8796 23 74.9982 21.8825 75.0001 20.5034Z" fill="#aaa"/>
<rect x="32.9166" y="22" width="23" height="5.00043" fill="#D00707"/>
<rect x="32.9166" y="34.5208" width="23" height="5.0023" fill="#D00707"/>
<rect x="32.8952" y="34.4717" width="23.6028" height="4.99865" transform="rotate(-30 32.8952 34.4717)" fill="#D00707"/>
</svg>
