<svg width="100" height="67" viewBox="0 0 100 67" fill="none" xmlns="http://www.w3.org/2000/svg">
<path d="M23.7952 56.4839C23.8864 56.2854 23.9678 56.087 24.0412 55.8886L24.6484 56.0513L24.9381 54.9679L24.3249 54.8032C24.3632 54.5911 24.3903 54.3772 24.4063 54.1623H25.0432V53.0412H24.4023C24.4023 53.0273 24.4023 53.0154 24.4023 53.0035C24.3825 52.8051 24.3547 52.6067 24.319 52.4082L24.9401 52.2416L24.6504 51.1602L24.0233 51.3268C23.9499 51.1284 23.8666 50.93 23.7753 50.7316L24.3388 50.4061L23.7773 49.4359L23.2118 49.7633C23.0888 49.5867 22.9558 49.418 22.8149 49.2553L23.2812 48.791L22.4875 47.9973L22.0212 48.4636C21.8585 48.3267 21.6879 48.1957 21.5133 48.0667L21.8427 47.4953L20.8724 46.9337L20.541 47.5072C20.3426 47.4179 20.1442 47.3365 19.9457 47.2631L20.1164 46.6222L19.033 46.3325L18.8624 46.9754C18.654 46.9377 18.4417 46.9099 18.2274 46.8921V46.2274H17.1063V46.8941C16.8934 46.91 16.6814 46.9372 16.4713 46.9754L16.3007 46.3325L15.2173 46.6222L15.3899 47.2631C15.1915 47.3365 14.9931 47.4179 14.7947 47.5092L14.4633 46.9337L13.493 47.4953L13.8244 48.0667C13.6478 48.1878 13.4771 48.3187 13.3144 48.4636L12.8481 47.9973L12.0544 48.791L12.5207 49.2553C12.3818 49.418 12.2509 49.5867 12.1239 49.7633L11.5564 49.4359L10.9949 50.4061L11.5604 50.7316C11.4668 50.9255 11.3834 51.1242 11.3104 51.3268L10.6853 51.1602L10.3936 52.2416L11.0167 52.4082C10.981 52.6067 10.9512 52.8051 10.9334 53.0035C10.9334 53.0154 10.9334 53.0273 10.9334 53.0412H10.2924V54.1623H10.9294C10.9472 54.3786 10.973 54.5929 11.0107 54.8032L10.3976 54.9679L10.6893 56.0513L11.2945 55.8886C11.3679 56.087 11.4493 56.2854 11.5425 56.4839L10.9988 56.7974L11.2608 57.2478L11.5604 57.7677L12.1001 57.4561C12.2231 57.6347 12.3541 57.8073 12.4969 57.974L12.0564 58.4125L12.8501 59.2062L13.2867 58.7697C13.4533 58.9106 13.624 59.0435 13.8026 59.1665L13.495 59.7003L14.4653 60.2598L14.7728 59.7301C14.9668 59.8243 15.1655 59.9084 15.3681 59.9821L15.2094 60.5773L16.2928 60.867L16.4495 60.2718C16.6638 60.3095 16.8801 60.3372 17.0984 60.3571V60.9682H18.2195V60.3571C18.4377 60.3392 18.654 60.3095 18.8683 60.2718L19.0251 60.867L20.1084 60.5773L19.9497 59.9821C20.1556 59.9083 20.3576 59.8242 20.5549 59.7301L20.8605 60.2598L21.8308 59.7003L21.5232 59.1665C21.7018 59.0415 21.8744 58.9086 22.0391 58.7697L22.4756 59.2062L23.2693 58.4125L22.8288 57.974C22.9697 57.8073 23.1007 57.6347 23.2257 57.4561L23.7634 57.7677L24.063 57.2478L24.3249 56.7974L23.7952 56.4839ZM17.6718 58.0097C16.5084 58.0087 15.3929 57.5462 14.5701 56.7237C13.7473 55.9013 13.2843 54.786 13.2827 53.6226C13.2827 53.4956 13.2827 53.3607 13.3025 53.2138C13.4109 52.1314 13.9176 51.1278 14.7242 50.3979C15.5309 49.668 16.58 49.2638 17.6678 49.2638C18.7557 49.2638 19.8048 49.668 20.6114 50.3979C21.4181 51.1278 21.9248 52.1314 22.0332 53.2138C22.047 53.3567 22.053 53.4916 22.053 53.6226C22.0514 54.7846 21.5895 55.8987 20.7684 56.7209C19.9473 57.5432 18.8338 58.0066 17.6718 58.0097Z" fill="#aaa"/>
<path d="M17.6719 55.6406C18.2066 55.6395 18.719 55.4265 19.0969 55.0482C19.4748 54.67 19.6873 54.1573 19.6879 53.6226C19.6879 53.5651 19.6879 53.5016 19.6879 53.4242C19.6407 52.9245 19.4088 52.4605 19.0377 52.1227C18.6665 51.7849 18.1827 51.5977 17.6808 51.5977C17.1789 51.5977 16.6951 51.7849 16.324 52.1227C15.9528 52.4605 15.7209 52.9245 15.6738 53.4242C15.6738 53.4956 15.6738 53.5571 15.6738 53.6127C15.6716 54.146 15.8805 54.6586 16.2548 55.0385C16.6292 55.4184 17.1386 55.6348 17.6719 55.6406Z" fill="#aaa"/>
<path d="M42.5126 62.2625C42.6039 62.064 42.6872 61.8656 42.7587 61.6672L43.3658 61.8299L43.6555 60.7405L43.0444 60.5759C43.0801 60.3655 43.1079 60.1512 43.1257 59.9349H43.7627V58.8139H43.1218C43.1218 58.8 43.1218 58.7881 43.1218 58.7762C43.1039 58.5765 43.0761 58.3778 43.0384 58.1809L43.6595 58.0142L43.3698 56.9328L42.7448 57.0995C42.6718 56.8969 42.5883 56.6982 42.4948 56.5042L43.0583 56.1788L42.4987 55.2085L41.9312 55.5359C41.8082 55.3593 41.6773 55.1906 41.5344 55.0279L41.9987 54.5636L41.205 53.7699L40.7387 54.2362C40.576 54.0993 40.4054 53.9684 40.2288 53.8394L40.5601 53.2679L39.5879 52.7064L39.2565 53.2798C39.0581 53.1905 38.8596 53.1092 38.6612 53.0358L38.8339 52.3949L37.7505 52.1052L37.5778 52.7481C37.3794 52.7104 37.1592 52.6826 36.9449 52.6647V52H35.8238V52.6667C35.6108 52.6827 35.3989 52.7098 35.1888 52.7481L35.0162 52.1052L33.9328 52.3968L34.1034 53.0377C33.905 53.1112 33.7066 53.1925 33.5082 53.2838L33.1768 52.7084L32.2065 53.2699L32.5359 53.8414C32.3593 53.9624 32.1906 54.0934 32.0279 54.2382L31.5597 53.7719L30.766 54.5656L31.2303 55.0299C31.0934 55.1926 30.9604 55.3613 30.8334 55.5379L30.2659 55.2105L29.7064 56.1808L30.2699 56.5062C30.1786 56.7046 30.0953 56.903 30.0219 57.1015L29.3949 56.9348L29.1052 58.0162L29.7262 58.1829C29.6905 58.3813 29.6627 58.5797 29.6429 58.7781C29.6438 58.7907 29.6438 58.8033 29.6429 58.8158H29V59.9369H29.6389C29.6549 60.1518 29.6821 60.3658 29.7203 60.5778L29.1071 60.7425L29.3968 61.8259L30.004 61.6632C30.0774 61.8616 30.1588 62.0601 30.2501 62.2585L29.7084 62.572L29.9683 63.0224L30.2679 63.5423L30.8076 63.2308C30.9307 63.4093 31.0636 63.582 31.2045 63.7486L30.766 64.1872L31.5597 64.9808L31.9982 64.5443C32.1629 64.6852 32.3355 64.8181 32.5141 64.9412L32.2065 65.4749L33.1768 66.0345L33.4824 65.5047C33.6765 65.5986 33.8751 65.6827 34.0777 65.7567L33.9209 66.352L35.0023 66.6417L35.161 66.0464C35.3734 66.0841 35.5896 66.1119 35.8099 66.1317V66.7428H36.931V66.1317C37.1492 66.1138 37.3655 66.0841 37.5778 66.0464L37.7366 66.6417L38.82 66.352L38.6612 65.7567C38.8637 65.6827 39.0624 65.5986 39.2565 65.5047L39.5621 66.0345L40.5343 65.4749L40.2248 64.9412C40.4034 64.8168 40.576 64.6845 40.7427 64.5443L41.1792 64.9808L41.9729 64.1872L41.5344 63.7486C41.6733 63.582 41.8062 63.4093 41.9312 63.2308L42.471 63.5423L42.7706 63.0224L43.0305 62.572L42.5126 62.2625ZM36.3913 63.7883C35.2279 63.7873 34.1124 63.3248 33.2895 62.5023C32.4667 61.6799 32.0037 60.5646 32.0021 59.4012C32.0021 59.2742 32.0021 59.1393 32.022 58.9924C32.1304 57.91 32.6371 56.9064 33.4437 56.1765C34.2504 55.4466 35.2994 55.0424 36.3873 55.0424C37.4752 55.0424 38.5242 55.4466 39.3309 56.1765C40.1375 56.9064 40.6442 57.91 40.7526 58.9924C40.7645 59.1353 40.7705 59.2702 40.7705 59.4012C40.7694 60.563 40.308 61.6771 39.4872 62.4994C38.6663 63.3217 37.5531 63.7852 36.3913 63.7883Z" fill="#aaa"/>
<path d="M36.3913 61.4191C36.926 61.4181 37.4385 61.2051 37.8164 60.8268C38.1943 60.4486 38.4068 59.9359 38.4073 59.4012C38.4073 59.3436 38.4073 59.2801 38.3974 59.2028C38.3502 58.7031 38.1184 58.239 37.7472 57.9013C37.376 57.5635 36.8922 57.3763 36.3903 57.3763C35.8885 57.3763 35.4047 57.5635 35.0335 57.9013C34.6623 58.239 34.4305 58.7031 34.3833 59.2028C34.3797 59.2655 34.3797 59.3285 34.3833 59.3913C34.3812 59.9263 34.5914 60.4403 34.9679 60.8205C35.3444 61.2007 35.8563 61.416 36.3913 61.4191Z" fill="#aaa"/>
<path d="M80.2803 56.4839C80.3716 56.2854 80.455 56.087 80.5284 55.8886L81.1336 56.0513L81.4233 54.9679L80.8121 54.8032C80.8498 54.5929 80.8756 54.3786 80.8935 54.1623H81.5304V53.0412H80.8955C80.8955 53.0273 80.8955 53.0154 80.8955 53.0035C80.8776 52.8038 80.8498 52.6052 80.8121 52.4082L81.4332 52.2416L81.1435 51.1602L80.5185 51.3268C80.4454 51.1242 80.362 50.9255 80.2684 50.7316L80.832 50.4061L80.2724 49.4359L79.7049 49.7633C79.5819 49.5867 79.4509 49.418 79.3081 49.2553L79.7724 48.791L78.9787 47.9973L78.5124 48.4636C78.3497 48.3267 78.179 48.1957 78.0024 48.0667L78.3338 47.4953L77.3615 46.9337L77.0302 47.5072C76.8318 47.4179 76.6333 47.3365 76.4349 47.2631L76.6075 46.6222L75.5241 46.3325L75.3515 46.9754C75.1432 46.9377 74.9328 46.9099 74.7185 46.8921V46.2274H73.5975V46.8941C73.3845 46.91 73.1726 46.9372 72.9625 46.9754L72.7899 46.3325L71.7085 46.6222L71.8791 47.2631C71.6807 47.3365 71.4823 47.4179 71.2838 47.5092L70.9525 46.9337L69.9822 47.4953L70.3116 48.0667C70.137 48.1878 69.9663 48.3187 69.8036 48.4636L69.3373 47.9973L68.5436 48.791L69.0099 49.2553C68.871 49.418 68.7381 49.5867 68.6131 49.7633L68.0476 49.4359L67.486 50.4061L68.0495 50.7316C67.9583 50.93 67.8749 51.1284 67.8015 51.3268L67.1745 51.1602L66.8848 52.2416L67.5059 52.4082C67.4701 52.6067 67.4424 52.8051 67.4225 53.0035C67.4235 53.0161 67.4235 53.0287 67.4225 53.0412H66.7876V54.1623H67.4245C67.4405 54.3772 67.4676 54.5911 67.5059 54.8032L66.8927 54.9679L67.1824 56.0513L67.7896 55.8886C67.863 56.087 67.9444 56.2854 68.0357 56.4839L67.494 56.7974L67.7559 57.2478L68.0555 57.7677L68.5932 57.4561C68.7182 57.6347 68.8492 57.8073 68.9901 57.974L68.5516 58.4125L69.3452 59.2062L69.7818 58.7697C69.9465 58.9106 70.1191 59.0435 70.2977 59.1665L69.9901 59.7003L70.9545 60.2598L71.26 59.7301C71.4585 59.8233 71.6569 59.9067 71.8553 59.9821L71.6985 60.5773L72.78 60.867L72.9387 60.2718C73.151 60.3095 73.3673 60.3372 73.5875 60.3571V60.9682H74.7245V60.3571C74.9428 60.3392 75.159 60.3095 75.3714 60.2718L75.5301 60.867L76.6135 60.5773L76.4547 59.9821C76.6573 59.9081 76.8559 59.824 77.05 59.7301L77.3556 60.2598L78.3279 59.7003L78.0183 59.1665C78.1969 59.0422 78.3695 58.9099 78.5362 58.7697L78.9727 59.2062L79.7664 58.4125L79.3279 57.974C79.4668 57.8073 79.5998 57.6347 79.7248 57.4561L80.2645 57.7677L80.5641 57.2478L80.824 56.7974L80.2803 56.4839ZM74.159 58.0097C72.9956 58.0087 71.8801 57.5462 71.0573 56.7237C70.2344 55.9013 69.7714 54.786 69.7699 53.6226C69.7699 53.4956 69.7699 53.3607 69.7897 53.2138C69.8981 52.1314 70.4048 51.1278 71.2114 50.3979C72.0181 49.668 73.0672 49.2638 74.155 49.2638C75.2429 49.2638 76.292 49.668 77.0986 50.3979C77.9053 51.1278 78.412 52.1314 78.5203 53.2138C78.5322 53.3567 78.5382 53.4916 78.5382 53.6226C78.5372 54.7834 78.0765 55.8966 77.257 56.7187C76.4375 57.5408 75.3258 58.005 74.1649 58.0097H74.159Z" fill="#aaa"/>
<path d="M74.1649 55.6406C74.6996 55.6395 75.2121 55.4265 75.59 55.0482C75.9679 54.67 76.1804 54.1573 76.1809 53.6226C76.1809 53.5651 76.1809 53.5016 76.1809 53.4242C76.1337 52.9245 75.9019 52.4605 75.5307 52.1227C75.1596 51.7849 74.6757 51.5977 74.1739 51.5977C73.672 51.5977 73.1882 51.7849 72.817 52.1227C72.4459 52.4605 72.214 52.9245 72.1668 53.4242C72.16 53.4868 72.1567 53.5497 72.1569 53.6127C72.1548 54.1477 72.365 54.6617 72.7415 55.0419C73.118 55.4221 73.6299 55.6374 74.1649 55.6406Z" fill="#aaa"/>
<path d="M84.3552 15.0509L86.352 16.2037L87.0941 14.9184L85.0973 13.7655L85.521 13.0318L97.7508 20.0927L98.4919 18.809L86.2621 11.7481L87.0389 10.4026L84.53 8.95413L84.8902 8.33035C84.9583 8.21231 84.9768 8.07204 84.9415 7.94038C84.9062 7.80873 84.8201 7.69648 84.7021 7.62833L78.9076 4.28291C78.7896 4.21476 78.6493 4.1963 78.5177 4.23157C78.386 4.26685 78.2738 4.35298 78.2056 4.47102L77.8455 5.0948L76.6168 4.38543C76.3126 4.20966 75.9649 4.12349 75.6138 4.13686C75.2627 4.15023 74.9225 4.26261 74.6325 4.46102L69 8.31177L83.4345 16.6456L84.3552 15.0509Z" fill="#aaa"/>
<path d="M34.0278 17.6622H17.646V19.5453H34.0278V17.6622Z" fill="#aaa"/>
<path fill-rule="evenodd" clip-rule="evenodd" d="M40.994 22.982L42 26L37.5 28.5V33H32.5L35.5 37V41.5L32.5 43H37.5V40.5H40.5L38.5 38H42L40.5 35L46.5 36L45 33H50.5L47.5 29.5L45 28.5L50.5 26H54.5L53.4222 22.982H80.2565L85.3679 28.2164H61.0512V29.022H86.1557L88.0566 30.9706H67.9226V31.7761H88.8443L91.8385 34.8438H95.3804C95.6843 34.8428 95.9846 34.9099 96.2592 35.04C96.5339 35.1701 96.776 35.36 96.9677 35.5958L98.9321 38.0166C99.2362 38.3937 99.3955 38.8671 99.3813 39.3514C99.3671 39.8356 99.1804 40.2989 98.8548 40.6576L88.7352 51.7911H86.6299V54.0988H84.6417L82.8797 46.3285C82.7436 45.8158 82.4465 45.3604 82.0322 45.0293C81.6178 44.6981 81.1081 44.5088 80.578 44.4891H67.7916C67.2617 44.5094 66.7523 44.699 66.338 45.03C65.9238 45.3611 65.6265 45.8161 65.4899 46.3285L63.7299 54.0988H61.7218V51.7911H46.0047V54.0988H44.6872L42.9272 46.3285C42.7905 45.8161 42.4933 45.3611 42.079 45.03C41.6648 44.699 41.1554 44.5094 40.6255 44.4891H29.3153L27.9264 47.3901C27.8082 47.6366 27.6227 47.8447 27.3914 47.9904C27.16 48.1361 26.8922 48.2135 26.6188 48.2135H25.9977C25.7242 48.2137 25.4563 48.1365 25.2249 47.9907C24.9935 47.845 24.8081 47.6368 24.6901 47.3901L23.3011 44.4891H11.991C11.4609 44.5088 10.9512 44.6981 10.5368 45.0293C10.1225 45.3604 9.82537 45.8158 9.6893 46.3285L7.9273 54.0988H6.60977V51.7931H4.22869L0.629291 32.5064C0.520332 31.9227 0.557925 31.3212 0.738698 30.7557C0.919471 30.1901 1.23777 29.6783 1.66506 29.2661L7.51458 23.615C7.94077 23.2044 8.51015 22.9759 9.10196 22.9781H14.5864V20.9522H36.147V22.982H40.994ZM83.5837 41.0133C83.4205 40.9043 83.2287 40.8461 83.0325 40.8461C82.7694 40.8461 82.517 40.9506 82.331 41.1367C82.1449 41.3227 82.0404 41.5751 82.0404 41.8382C82.0404 42.0344 82.0986 42.2262 82.2076 42.3894C82.3166 42.5525 82.4715 42.6797 82.6528 42.7548C82.8341 42.8299 83.0336 42.8495 83.226 42.8113C83.4185 42.773 83.5953 42.6785 83.734 42.5397C83.8728 42.401 83.9673 42.2242 84.0055 42.0317C84.0438 41.8393 84.0242 41.6398 83.9491 41.4585C83.874 41.2772 83.7468 41.1223 83.5837 41.0133ZM64.7224 42.6631C64.8856 42.7721 65.0774 42.8303 65.2736 42.8303V42.8244C65.5357 42.8244 65.7871 42.7207 65.973 42.5359C66.1589 42.3511 66.2641 42.1003 66.2657 41.8382C66.2657 41.642 66.2075 41.4502 66.0985 41.287C65.9895 41.1239 65.8346 40.9967 65.6533 40.9216C65.472 40.8465 65.2725 40.8269 65.0801 40.8651C64.8876 40.9034 64.7108 40.9979 64.5721 41.1367C64.4333 41.2754 64.3388 41.4522 64.3005 41.6446C64.2623 41.8371 64.2819 42.0366 64.357 42.2179C64.4321 42.3992 64.5593 42.5541 64.7224 42.6631ZM59.0253 31.7821H64.0632V30.9765H59.0253V31.7821ZM57.1938 28.2224H52.1578L52.1539 29.028H57.1938V28.2224ZM44.6094 41.0192C44.4462 40.9102 44.2544 40.852 44.0582 40.852L44.0542 40.8461C43.9238 40.8466 43.7947 40.8728 43.6744 40.9233C43.5541 40.9738 43.4449 41.0475 43.3531 41.1402C43.2614 41.2329 43.1888 41.3428 43.1395 41.4636C43.0902 41.5844 43.0653 41.7137 43.0661 41.8441C43.0661 42.0404 43.1243 42.2322 43.2333 42.3953C43.3423 42.5585 43.4972 42.6857 43.6785 42.7607C43.8598 42.8358 44.0593 42.8555 44.2517 42.8172C44.4442 42.7789 44.621 42.6844 44.7597 42.5457C44.8985 42.4069 44.993 42.2302 45.0312 42.0377C45.0695 41.8452 45.0499 41.6458 44.9748 41.4645C44.8997 41.2832 44.7725 41.1283 44.6094 41.0192ZM25.7461 42.6691C25.9093 42.7781 26.1011 42.8363 26.2973 42.8363L26.2934 42.8244C26.5551 42.8254 26.8067 42.723 26.9933 42.5394C27.1798 42.3558 27.2863 42.1059 27.2894 41.8441C27.2894 41.6479 27.2313 41.4561 27.1222 41.293C27.0132 41.1298 26.8583 41.0026 26.677 40.9275C26.4957 40.8525 26.2962 40.8328 26.1038 40.8711C25.9113 40.9094 25.7345 41.0039 25.5958 41.1426C25.457 41.2814 25.3625 41.4581 25.3243 41.6506C25.286 41.843 25.3056 42.0425 25.3807 42.2238C25.4558 42.4051 25.583 42.56 25.7461 42.6691ZM9.08963 41.0192C8.92648 40.9102 8.73466 40.852 8.53844 40.852L8.53447 40.8461C8.40402 40.8466 8.27495 40.8728 8.15465 40.9233C8.03435 40.9738 7.92518 41.0475 7.8334 41.1402C7.74161 41.2329 7.66901 41.3428 7.61975 41.4636C7.57049 41.5844 7.54554 41.7137 7.54632 41.8441C7.54632 42.0404 7.60451 42.2322 7.71353 42.3953C7.82254 42.5585 7.97749 42.6857 8.15877 42.7607C8.34006 42.8358 8.53954 42.8555 8.73199 42.8172C8.92444 42.7789 9.10122 42.6844 9.23997 42.5457C9.37872 42.4069 9.47321 42.2302 9.51149 42.0377C9.54978 41.8452 9.53013 41.6458 9.45504 41.4645C9.37995 41.2832 9.25278 41.1283 9.08963 41.0192ZM5.18665 30.6635C5.02349 30.5545 4.83168 30.4963 4.63546 30.4963L4.63149 30.4904C4.50103 30.4909 4.37196 30.5171 4.25166 30.5676C4.13136 30.6181 4.02219 30.6918 3.93041 30.7845C3.83863 30.8772 3.76603 30.9871 3.71677 31.1079C3.66751 31.2287 3.64255 31.358 3.64334 31.4884C3.64334 31.6847 3.70153 31.8765 3.81054 32.0396C3.91956 32.2028 4.0745 32.3299 4.25579 32.405C4.43707 32.4801 4.63656 32.4998 4.82901 32.4615C5.02146 32.4232 5.19824 32.3287 5.33699 32.19C5.47574 32.0512 5.57023 31.8744 5.60851 31.682C5.64679 31.4895 5.62714 31.2901 5.55205 31.1088C5.47696 30.9275 5.3498 30.7725 5.18665 30.6635Z" fill="#aaa"/>
<path d="M58.7592 20.5344L64.5998 19.019L73.8679 30.746L70.9147 20.1495L78.3501 18.1247L71.5395 15.4041L69.6208 5.87596L67.9185 11.6649L57.4654 6.26089L63.1555 12.1368L52.5518 14.1243L59.384 15.789L58.7592 20.5344Z" fill="#EC1F1F"/>
</svg>
