<svg width="132" height="46" viewBox="0 0 132 46" fill="none" xmlns="http://www.w3.org/2000/svg">
<path d="M47.6261 37.3072L47.6168 38.5233L78.4113 38.7871C78.3134 38.3864 78.2391 37.9803 78.1888 37.5708L47.6261 37.3072Z" fill="#aaa"/>
<path d="M102.83 29.3133L89.8889 20.5311C88.7831 19.7832 87.4371 19.4769 86.1165 19.6727L82.8849 20.159L82.5956 16.2792L56.2866 18.2496L56.7237 24.075L43.7264 26.0181L39.7178 28.9165L39.7671 32.4885L11.7509 32.6522L10.7909 30.2329L0.281116 34.4077L1.77331 38.1459L9.0309 35.2694L77.3927 35.8407L77.3714 36.1137L78.8858 36.232L78.9451 35.473C79.1497 32.8525 80.387 30.4205 82.3847 28.7122C84.3825 27.0039 86.977 26.1592 89.5975 26.3638C92.2181 26.5684 94.65 27.8057 96.3583 29.8034C98.0666 31.8012 98.9113 34.3957 98.7067 37.0162L98.6474 37.7752L100.165 37.8937L100.225 37.1348C100.312 36.0146 100.233 34.8877 99.9898 33.7909L101.727 33.7517L102.83 29.3133ZM79.9292 17.8907C80.1102 17.9049 80.2829 17.9723 80.4255 18.0846C80.5681 18.1969 80.6742 18.349 80.7304 18.5216C80.7866 18.6942 80.7904 18.8796 80.7412 19.0544C80.692 19.2291 80.5921 19.3853 80.4542 19.5033C80.3162 19.6213 80.1464 19.6957 79.9661 19.7171C79.7859 19.7386 79.6033 19.7061 79.4415 19.6238C79.2797 19.5415 79.146 19.413 79.0572 19.2547C78.9684 19.0964 78.9286 18.9153 78.9427 18.7343C78.9494 18.6123 78.9804 18.4929 79.034 18.3831C79.0876 18.2733 79.1626 18.1754 79.2547 18.0951C79.3468 18.0148 79.4541 17.9538 79.5702 17.9156C79.6862 17.8775 79.8088 17.863 79.9306 17.873L79.9292 17.8907ZM59.2059 19.4303C59.3871 19.4438 59.5603 19.5107 59.7034 19.6226C59.8466 19.7345 59.9532 19.8864 60.01 20.0589C60.0667 20.2315 60.071 20.4171 60.0222 20.5921C59.9734 20.7671 59.8737 20.9237 59.7359 21.042C59.598 21.1604 59.4282 21.2351 59.2478 21.2568C59.0675 21.2786 58.8847 21.2463 58.7227 21.164C58.5607 21.0818 58.4268 20.9534 58.3378 20.795C58.2489 20.6366 58.2089 20.4553 58.2231 20.2742C58.2297 20.1525 58.2606 20.0333 58.314 19.9238C58.3673 19.8142 58.4421 19.7164 58.5338 19.6361C58.6255 19.5558 58.7323 19.4947 58.848 19.4563C58.9636 19.4179 59.0858 19.4031 59.2073 19.4126L59.2059 19.4303Z" fill="#aaa"/>
<path d="M78.5724 7.2073L78.9353 9.5623L105.751 5.43571L106 8L61.7424 14.8486L62.0981 17.1573L46.0045 19.6333L44.9977 13.0876L43.3898 8.68715L39 7.20374L39.3664 6.12584L44.272 7.7836L45.3357 10.69L47.6943 10.3271L47.5484 9.39151L57.3099 7.85829L57.4628 8.82589L60.7356 8.32077L60.9812 9.91448L78.5724 7.2073Z" fill="#aaa"/>
<path d="M129.435 40.7918L124.711 38.4178L124.94 37.9608L98 24.5L99 22.5L126.112 35.6253L126.341 35.1683L131.069 37.5444L129.435 40.7918Z" fill="#aaa"/>
<path d="M96.4889 35.4314C96.4676 35.2073 96.4355 34.9867 96.3964 34.7697L97.0794 34.5883L96.7593 33.4001L96.0691 33.5851C95.9873 33.3645 95.8984 33.1475 95.7988 32.9341L96.4178 32.5784L95.8023 31.5111L95.1763 31.8669C95.0411 31.6748 94.8987 31.4898 94.7493 31.3119L95.2616 30.7961L94.3936 29.9281L93.8777 30.4439C93.6963 30.2945 93.522 30.1522 93.3192 30.0206L93.675 29.3874L92.6077 28.7719L92.252 29.4052C92.0386 29.3055 91.8252 29.2166 91.6046 29.1383L91.7932 28.4269L90.605 28.1103L90.4164 28.8217C90.1887 28.7826 89.9575 28.7506 89.7227 28.7328V28H88.4919V28.747C88.2571 28.747 88.0259 28.7968 87.7804 28.836L87.5919 28.1245L86.4037 28.4411L86.5922 29.1526C86.3717 29.2309 86.1582 29.3198 85.9447 29.4194L85.589 28.7862L84.5218 29.4016L84.8775 30.0348C84.6854 30.1664 84.5005 30.3088 84.3226 30.4582L83.8067 29.9423L82.9352 30.8104L83.451 31.3262C83.298 31.504 83.1558 31.6819 83.0206 31.8811L82.3945 31.5254L81.779 32.5926L82.4016 32.9483C82.2984 33.1618 82.2095 33.3788 82.1277 33.5993L81.4376 33.4143L81.121 34.6025L81.804 34.7839C81.7605 35.0025 81.7296 35.2235 81.7115 35.4456C81.7095 35.4586 81.7095 35.4718 81.7115 35.4847H81V36.7156H81.7115C81.728 36.9542 81.7577 37.1918 81.8004 37.4271L81.1245 37.6085L81.4411 38.7967L82.1134 38.6153C82.1909 38.8396 82.2812 39.0593 82.3838 39.2734L81.7826 39.6291L82.398 40.6963L82.9886 40.3406C83.1233 40.5377 83.2681 40.7277 83.4226 40.9098L82.9388 41.3936L83.8103 42.2616L84.2906 41.7813C84.472 41.9343 84.6464 42.0802 84.8562 42.2153L84.5005 42.8023L85.5677 43.4177L85.9057 42.8308C86.1203 42.933 86.3399 43.0244 86.5637 43.1047L86.3894 43.7592L87.5776 44.0758L87.7519 43.4249C87.9832 43.4675 88.2215 43.4996 88.4634 43.5209V44.1933H89.6943V43.5209C89.9326 43.4996 90.1709 43.4675 90.4057 43.4249L90.58 44.0758L91.7682 43.7592L91.5939 43.1047C91.8177 43.0244 92.0373 42.933 92.252 42.8308L92.6077 43.4177L93.675 42.8023L93.3192 42.2153C93.5149 42.0802 93.7034 41.9343 93.8849 41.7813L94.3687 42.2616L95.2367 41.3936L94.7529 40.9098C94.9058 40.7283 95.0517 40.554 95.1868 40.3441L95.7774 40.6999L96.3929 39.6327L95.7952 39.2769C95.8951 39.0622 95.9842 38.8425 96.062 38.6188L96.7343 38.8002L97.0545 37.6121L96.375 37.4307C96.4177 37.1994 96.4462 36.9682 96.4675 36.7192H97.179V35.4883H96.4675L96.4889 35.4314ZM89.1109 40.9276C87.8359 40.9257 86.6136 40.4184 85.7121 39.5168C84.8105 38.6152 84.3032 37.393 84.3013 36.118C84.3013 35.9757 84.3013 35.8298 84.3226 35.6697C84.4353 34.4778 84.9885 33.3708 85.874 32.565C86.7595 31.7593 87.9136 31.3127 89.1109 31.3127C90.3081 31.3127 91.4623 31.7593 92.3478 32.565C93.2333 33.3708 93.7864 34.4778 93.8991 35.6697C93.8991 35.8262 93.9205 35.9721 93.9205 36.118C93.9186 37.393 93.4112 38.6152 92.5097 39.5168C91.6081 40.4184 90.3859 40.9257 89.1109 40.9276Z" fill="#aaa"/>
<path d="M91.3237 36.1181C91.3237 36.0505 91.3237 35.9829 91.3237 35.9047C91.2742 35.3553 91.021 34.8442 90.6138 34.4721C90.2067 34.0999 89.675 33.8936 89.1234 33.8936C88.5718 33.8936 88.0401 34.0999 87.633 34.4721C87.2258 34.8442 86.9726 35.3553 86.9231 35.9047C86.9185 35.9745 86.9185 36.0447 86.9231 36.1145C86.9231 36.7014 87.1563 37.2642 87.5712 37.6791C87.9862 38.0941 88.549 38.3273 89.1358 38.3273C89.7227 38.3273 90.2855 38.0941 90.7004 37.6791C91.1154 37.2642 91.3486 36.7014 91.3486 36.1145L91.3237 36.1181Z" fill="#aaa"/>
<path d="M32.9279 30.5608L18.7736 30.6904L18.7847 31.9035L32.939 31.7738L32.9279 30.5608Z" fill="#aaa"/>
<path d="M44.137 13.5412L42.0515 13.8816L42.9317 19.2744L45.0172 18.934L44.137 13.5412Z" fill="#aaa"/>
<path d="M34.8868 22.4325L40.7277 23.9467L43.128 38.7L45.6972 28.0039L53.1794 29.8482L48.5496 24.1604L51.5037 14.9008L47.2024 19.1326L40.6933 9.32937L42.8103 17.2302L32.5774 13.8135L37.7392 18.589L34.8868 22.4325Z" fill="#EC1F1F"/>
</svg>
