<svg width="135" height="41" viewBox="0 0 135 41" fill="none" xmlns="http://www.w3.org/2000/svg">
<path d="M19.5847 25.88H9.23224V27.1567L19.5847 27.1236V25.88Z" fill="#aaa"/>
<path d="M132.6 22.7501L122.348 24.1886L122.492 25.2117L132.765 23.9309L132.6 22.7501Z" fill="#aaa"/>
<path d="M121.925 21.5236L116.774 24.9651L117.08 25.4514L122.428 22.2865L122.699 22.6971L123.559 22.3867L124.128 23.2485L126.099 22.5365L125.988 21.5095L126.827 21.2063L126.585 19L121.596 21.0257L121.925 21.5236Z" fill="#aaa"/>
<path d="M31.1405 20.5609L30.2507 20.4755L30.1053 19.4531L28.0185 19.2529L27.68 20.2289L26.7717 20.1417L26.6114 20.6066L20.6448 18.8686L20.4686 19.4158L26.3116 21.4705L25.792 22.976L31.5613 23.5109L31.1405 20.5609Z" fill="#aaa"/>
<path d="M51.4406 22.2893L43.7035 21.5469L44.536 12.8719L41.1349 1.742L40.1185 1.64447L43.5196 12.7743L42.6871 21.4494L40.8903 21.2769L41.7227 12.6019L38.4905 6.00893L37.4741 5.9114L40.7063 12.5044L39.8739 21.1794L35.3416 20.7445L35.0452 23.8333L51.1492 25.3266L51.4406 22.2893Z" fill="#aaa"/>
<path d="M83.3481 28.2859L83.5353 26.3349L82.2325 26.2098L82.1067 25.3303L72.4449 24.4032L72.5049 23.7784L82.015 24.6909L81.8065 23.2314L71.4394 22.2366L71.4994 21.6117L81.7149 22.592L81.3913 20.3205L77.625 19.9591L76.8791 14.768L74.7778 14.5664L74.9536 12.7339L73.6063 12.6047L73.983 8.67878L73.1617 8.59997L72.785 12.5258L71.6711 12.419L72.0478 8.49308L71.2278 8.4144L70.8511 12.3403L69.5025 12.2109L69.3266 14.0433L68.3261 13.9473L69.1786 5.062L71.6518 5.29931L72.3807 2.40241L69.4607 2.12221L69.5451 1.24291L68.4509 1.13791L68.3665 2.01722L65.4465 1.73703L65.61 4.71957L67.9988 4.94878C66.2557 8.13116 63.92 10.9508 61.1176 13.2556L58.5127 13.0056L54.1514 25.6107L83.3481 28.2859ZM67.2343 16.1734L67.0765 17.8187L63.3629 17.4623L63.5203 15.8211L67.2343 16.1734ZM68.0155 17.9048L68.173 16.2635L71.8853 16.6197L71.7274 18.265L68.0155 17.9048ZM70.3545 22.1325L68.352 21.9404L68.412 21.3155L70.4145 21.5076L70.3545 22.1325ZM75.4911 18.6261L72.6647 18.3549L72.8222 16.7136L75.6486 16.9848L75.4911 18.6261ZM64.5821 13.588C65.7245 12.5663 66.7351 11.406 67.5903 10.1342L67.2345 13.8425L64.5821 13.588ZM68.0416 5.43184L67.6447 9.56732C66.7019 11.0554 65.5471 12.3981 64.2169 13.553L61.4907 13.2914C64.124 11.0795 66.3417 8.41567 68.0395 5.425L68.0416 5.43184ZM59.7616 15.463L62.5841 15.7339L62.4269 17.3725L59.6031 17.1016L59.7616 15.463ZM65.0919 21.0035L67.0944 21.1957L67.0344 21.8206L65.0306 21.6283L65.0919 21.0035Z" fill="#aaa"/>
<path d="M105.231 27.1473L104.24 24.176L109.519 22.3842L115.145 23.4193L114.84 22.4324L109.106 21.1108L103.719 22.6159L103.439 21.7758L101.801 21.915L101.213 20.1521L97.452 20.4717L97.1695 22.3086L95.5675 22.4448L95.3972 23.5531L100.207 23.1444L100.252 23.6722L95.3141 24.0919L94.6498 28.4121L96.13 28.281L105.231 27.1473Z" fill="#aaa"/>
<path d="M50.5267 20.3084L48.7088 20.1339L48.9729 17.3813L48.4508 17.3313L48.1867 20.0838L47.6568 20.033L48.2523 13.8265L47.729 13.7762L47.1334 19.9828L44.6656 19.746L44.5493 20.9575L50.4104 21.5199L50.5267 20.3084Z" fill="#aaa"/>
<path d="M75.9906 12.3279C76.2318 12.351 76.4745 12.3021 76.6879 12.1873C76.9013 12.0725 77.0759 11.897 77.1896 11.6829C77.3032 11.4689 77.3508 11.2259 77.3264 10.9848C77.3019 10.7437 77.2065 10.5153 77.0522 10.3284C76.8979 10.1416 76.6916 10.0047 76.4595 9.93507C76.2273 9.86546 75.9798 9.86625 75.7481 9.93737C75.5164 10.0085 75.3111 10.1467 75.158 10.3346C75.0049 10.5225 74.9109 10.7515 74.8881 10.9928C74.8574 11.316 74.9563 11.6381 75.163 11.8885C75.3697 12.1388 75.6674 12.2969 75.9906 12.3279Z" fill="#aaa"/>
<path d="M85.8523 29.3411L85.0821 30.5715L85.982 31.6624L84.7478 34.0555L85.6 35.6441L84.4613 37.0418L82.4704 36.8507L84.318 38.5349L82.8211 40.0774C58.0908 37.2625 16.8753 31.7475 6.87777 30.4022C6.18178 30.308 5.52011 30.0424 4.95225 29.6291C4.3844 29.2158 3.92815 28.6679 3.62455 28.0345C2.80517 26.3275 1.56409 21.5279 1.56409 21.5279L85.8523 29.3411Z" fill="#aaa"/>
<path d="M85.9877 29.561L86.3839 31.3408L89.4521 32.1065L86.0782 33.8719L86.6924 35.3289L85.3511 37.4386L87.9593 38.7413L85.5053 39.4326L85.2952 40.6728C88.4526 40.4768 91.2817 40.2848 93.6674 40.1003C117.098 38.2882 127.565 35.7997 127.565 35.7997C127.565 35.7997 127.745 31.7172 131.108 30.0797C134.47 28.4422 133.975 24.2127 133.975 24.2127L93.1015 28.9877L85.9877 29.561Z" fill="#aaa"/>
<path d="M80.372 22.3796L84.2703 23.4056L85.8926 33.3237L87.591 26.1393L92.5847 27.3894L89.4882 23.5604L91.4454 17.3419L88.5823 20.1796L84.2264 13.5822L85.6499 18.8948L78.819 16.584L82.2691 19.8007L80.372 22.3796Z" fill="#EC1F1F"/>
</svg>
