<svg width="127" height="93" viewBox="0 0 127 93" fill="none" xmlns="http://www.w3.org/2000/svg">
<path d="M0.0498181 51.7042C1.32022 54.2934 26.0881 43.8083 26.0881 43.8083L22.2284 35.9474C22.2284 35.9474 -1.22058 49.1149 0.0498181 51.7042Z" fill="#aaa"/>
<path d="M82.7828 9.70538L71.3686 15.3068L70.3445 13.2198L76.169 10.3609L76.5278 -6.96451e-05L63.3661 6.4586L63.0383 15.9177L24.1409 35.0028L28.0005 42.8695L66.898 23.7864L74.5805 29.3141L87.7441 22.8574L79.3285 16.8002L73.504 19.6591L72.48 17.5702L83.8941 11.9708L82.7828 9.70538Z" fill="#aaa"/>
<path fill-rule="evenodd" clip-rule="evenodd" d="M76.3194 62.0417H70.2357V56.8243C70.2359 56.5738 70.1835 56.3261 70.082 56.0971C69.9805 55.868 69.8322 55.6629 69.6465 55.4947C69.4608 55.3266 69.2419 55.1992 69.004 55.1209C68.7661 55.0426 68.5144 55.015 68.2651 55.0399L62.1575 55.6451L61.341 54.6365C60.8985 54.0888 60.3265 53.6601 59.6766 53.3892C59.0267 53.1182 58.3195 53.0136 57.619 53.0849L50.2352 53.8374L54.956 38.709L65.3752 33.5169L63.5443 29.8453L17.2882 52.9045L19.1172 56.576L32.1606 50.0786L34.876 55.4123L25.4789 56.3705C24.7788 56.4407 24.1072 56.6844 23.525 57.0796C22.9429 57.4749 22.4685 58.0091 22.1449 58.6339L21.6095 59.6638L15.9635 60.2224V74.9512H14.9938C14.088 74.9512 14.088 78.2484 14.9938 78.2484H19.1056V79.1969H20.6572V78.4211C20.6572 75.7405 21.7221 73.1698 23.6175 71.2744C25.5129 69.379 28.0836 68.3141 30.7642 68.3141C33.4447 68.3141 36.0154 69.379 37.9108 71.2744C39.8063 73.1698 40.8711 75.7405 40.8711 78.4211V79.1969H42.4227V78.2484H42.9289V79.1969H44.4806V78.4211C44.4806 75.7405 45.5454 73.1698 47.4408 71.2744C49.3362 69.379 51.907 68.3141 54.5875 68.3141C57.268 68.3141 59.8388 69.379 61.7342 71.2744C63.6296 73.1698 64.6944 75.7405 64.6944 78.4211V79.1969H66.2461V78.2484H71.4634C72.3711 78.2484 72.3711 74.9512 71.4634 74.9512H70.2551V72.5094C71.8271 73.1136 73.4673 73.5212 75.1383 73.7233L75.5067 72.9865C73.6974 72.7922 71.9236 72.3484 70.2357 71.6676V69.7436H75.4202L76.9233 67.0379H70.2357V65.9847C70.9593 66.2906 71.735 66.4545 72.5205 66.4677C73.4938 66.4677 74.3417 66.184 75.0875 65.7374L76.3194 62.0417ZM70.2357 65.1352C72.3498 66.0778 73.915 65.6822 75.1699 64.7473H70.2357V65.1352ZM44.5535 60.7953C44.3993 61.0265 44.3173 61.2983 44.3176 61.5762C44.3176 61.9481 44.4654 62.3048 44.7284 62.5677C44.9913 62.8307 45.348 62.9785 45.7199 62.9785C45.9978 62.9788 46.2696 62.8968 46.5008 62.7426C46.732 62.5885 46.9123 62.3692 47.0188 62.1125C47.1254 61.8558 47.1533 61.5733 47.0992 61.3008C47.0451 61.0282 46.9113 60.7778 46.7148 60.5813C46.5183 60.3848 46.2679 60.251 45.9953 60.1969C45.7228 60.1428 45.4403 60.1707 45.1836 60.2773C44.9269 60.3838 44.7076 60.5641 44.5535 60.7953ZM39.6181 55.905L40.5743 57.7824L44.9558 57.3519L45.5958 55.296L39.6181 55.905ZM40.8914 62.3568C41.0455 62.1257 41.1275 61.854 41.1271 61.5762C41.1271 61.3919 41.0908 61.2094 41.0202 61.0391C40.9496 60.8688 40.8461 60.7142 40.7157 60.5839C40.5853 60.4537 40.4305 60.3504 40.2601 60.2801C40.0898 60.2097 39.9072 60.1736 39.7229 60.1739C39.4451 60.1739 39.1735 60.2563 38.9425 60.4107C38.7116 60.5651 38.5316 60.7845 38.4254 61.0412C38.3191 61.2979 38.2914 61.5803 38.3458 61.8528C38.4001 62.1252 38.5341 62.3754 38.7306 62.5717C38.9272 62.768 39.1776 62.9016 39.4501 62.9556C39.7226 63.0096 40.005 62.9815 40.2616 62.8749C40.5182 62.7683 40.7373 62.588 40.8914 62.3568ZM59.303 54.2863C58.8015 54.0784 58.256 53.9988 57.716 54.0546L49.921 54.8479L49.277 56.9155L61.0015 55.7517L60.5884 55.2455C60.2463 54.8239 59.8046 54.4942 59.303 54.2863ZM49.9966 41.1916L35.7391 48.2942L39.1449 54.9779L45.91 54.2893L49.9966 41.1916ZM24.0742 57.8827C23.6251 58.1876 23.2592 58.5998 23.0099 59.0819L22.7655 59.5494L36.3035 58.2072L35.3531 56.3394L25.5817 57.3363C25.0416 57.3901 24.5234 57.5779 24.0742 57.8827Z" fill="#aaa"/>
<path fill-rule="evenodd" clip-rule="evenodd" d="M84.2892 62.2037L82.7905 57.7005C82.6057 57.1403 82.6503 56.5297 82.9146 56.0023C83.1789 55.475 83.6413 55.0738 84.2007 54.8866L105.495 47.7999C106.656 47.4134 108.321 47.7914 109.216 48.6364L118.538 57.5637C119.548 58.6114 120.335 59.8542 120.849 61.216L123.503 69.1919L124.548 68.844C125.408 68.558 126.449 71.6865 125.59 71.9725L119.675 73.941L119.974 74.8409L118.502 75.3308L118.257 74.5947C117.411 72.0513 115.589 69.9484 113.192 68.7484C110.795 67.5485 108.019 67.3499 105.476 68.1964C102.932 69.0428 100.829 70.8649 99.6295 73.2619C98.4296 75.6588 98.231 78.4343 99.0775 80.9776L99.3224 81.7138L97.8502 82.2037L97.5507 81.3038L86.9046 84.8468C86.0451 85.1329 85.004 82.0043 85.8634 81.7183L86.7836 81.4121L85.8796 78.6958C83.8449 78.8837 83.1174 79.6729 82.3085 80.5504L82.2919 80.5684C81.5934 81.3383 80.811 82.1969 79.169 82.7483L79.8112 81.6341C80.6759 81.1792 81.1926 80.6114 81.6982 80.0558L81.6997 80.0542C82.5674 79.099 83.3964 78.1874 85.6107 77.9493L85.1207 76.477L79.8206 78.2409L79.5858 77.5353L80.2073 75.2607L84.2664 73.9098L83.5473 71.7432L79.1982 73.1906L77.849 72.3167L79.2352 70.3164L82.6881 69.1673L82.1314 67.4945C80.8673 67.7091 78.982 68.2241 78.0357 69.5187L77.3642 69.1153C78.4274 67.5946 80.4674 66.9867 81.8796 66.7443L80.7582 63.3747L82.0041 62.9601L79.6217 55.8013L76.1627 54.0682L76.7165 52.962L80.6409 54.9265L83.185 62.5712L84.2892 62.2037ZM95.9862 55.5227L85.5665 58.9904L88.2612 67.0878L98.681 63.6201L95.9862 55.5227ZM101.851 66.2773L106.635 64.685L106.261 63.5587L101.476 65.1511L101.851 66.2773ZM99.7993 63.2336L115.676 57.95L108.698 51.2778L97.1045 55.1363L99.7993 63.2336Z" fill="#aaa"/>
<path d="M39.0012 79.0146V77.7616H38.2836C38.2846 77.7474 38.2846 77.7332 38.2836 77.719C38.2623 77.492 38.2312 77.2671 38.1905 77.0459L38.8848 76.852L38.5609 75.6417L37.8608 75.8357C37.7774 75.6087 37.6862 75.3876 37.5815 75.1704L38.2099 74.8077L37.5834 73.7216L36.9492 74.0881C36.8134 73.8942 36.666 73.7002 36.5108 73.5199L37.0306 73.0001L36.1443 72.1137L35.6225 72.6354C35.4402 72.4822 35.2501 72.3367 35.0543 72.199L35.4228 71.5609L34.3366 70.9345L33.9662 71.5765C33.7508 71.4734 33.5301 71.3821 33.3048 71.303L33.4987 70.5853L32.2885 70.2614L32.0945 70.981C31.8596 70.9381 31.6227 70.907 31.3847 70.8879V70.1528H30.1317V70.8976C29.8937 70.9167 29.6567 70.9478 29.4218 70.9907L29.2279 70.2711L28.0176 70.5951L28.2116 71.3127C27.9866 71.3941 27.7655 71.4853 27.5502 71.5862L27.1797 70.9286L26.0936 71.5551L26.464 72.1952C26.2701 72.3309 26.0761 72.4764 25.8938 72.6296L25.3721 72.1079L24.4857 72.9943L25.0075 73.5141C24.8523 73.6964 24.7049 73.8864 24.5672 74.0823L23.9329 73.7158L23.3065 74.8019L23.9368 75.1646C23.834 75.3818 23.7429 75.6029 23.6595 75.8299L22.9593 75.6359L22.6335 76.8462L23.3298 77.0401C23.289 77.2612 23.258 77.4862 23.2367 77.7131C23.2367 77.7267 23.2367 77.7422 23.2367 77.7558H22.519V79.0088H23.2308C23.2502 79.2512 23.2813 79.4917 23.322 79.7264L22.6373 79.9203L22.9632 81.1306L23.6401 80.9483C23.7215 81.1791 23.8146 81.4022 23.9155 81.6213L23.3104 81.9704L23.9368 83.0566L24.54 82.7075C24.6777 82.9014 24.8251 83.0954 24.9822 83.2893L24.4896 83.78L25.376 84.6664L25.8647 84.1776C26.0587 84.3347 26.2429 84.4841 26.4466 84.6218L26.1014 85.2192L27.1875 85.8456L27.5289 85.2638C27.748 85.3666 27.973 85.4577 28.2038 85.545L28.0273 86.2044L29.2376 86.5283L29.4141 85.867C29.6526 85.9096 29.8951 85.9426 30.1395 85.962V86.6389H31.3924V85.9542C31.6357 85.9355 31.8779 85.9038 32.1178 85.8592L32.2943 86.5206L33.5046 86.1967L33.3281 85.5372C33.5589 85.4538 33.7839 85.3588 34.003 85.256L34.3444 85.8379L35.4305 85.2114L35.0872 84.6179C35.2812 84.4783 35.4751 84.3289 35.6691 84.1718L36.1579 84.6606L37.0442 83.7742L36.5535 83.2835C36.7087 83.0896 36.8561 82.8956 36.9938 82.7016L37.597 83.0508L38.2235 81.9646L37.6183 81.6155C37.7211 81.3963 37.8123 81.1733 37.8937 80.9425L38.5726 81.1248L38.8965 79.9145L38.2118 79.7206C38.2526 79.4859 38.2836 79.2454 38.303 79.0029L39.0012 79.0146ZM30.7601 83.3242C29.4593 83.3232 28.2121 82.8062 27.2921 81.8865C26.3722 80.9669 25.8546 79.7199 25.8531 78.4191C25.8531 78.2756 25.8531 78.1263 25.8764 77.9634C25.9877 76.7453 26.5503 75.6129 27.4537 74.7883C28.3571 73.9638 29.536 73.5066 30.7592 73.5066C31.9823 73.5066 33.1612 73.9638 34.0646 74.7883C34.968 75.6129 35.5306 76.7453 35.6419 77.9634C35.6575 78.1243 35.6633 78.2737 35.6633 78.4211C35.6617 79.721 35.1447 80.9672 34.2255 81.8864C33.3063 82.8056 32.06 83.3227 30.7601 83.3242Z" fill="#aaa"/>
<path d="M33.014 78.4191C33.014 78.3532 33.0102 78.2814 33.0024 78.2038C32.9504 77.6447 32.6914 77.1251 32.2764 76.7468C31.8613 76.3686 31.3199 76.1589 30.7584 76.1589C30.1968 76.1589 29.6554 76.3686 29.2404 76.7468C28.8253 77.1251 28.5663 77.6447 28.5143 78.2038C28.5143 78.2853 28.5027 78.3532 28.5027 78.4152C28.5027 78.7115 28.561 79.0048 28.6744 79.2784C28.7877 79.5521 28.9539 79.8008 29.1633 80.0103C29.3728 80.2197 29.6215 80.3859 29.8951 80.4992C30.1688 80.6126 30.4621 80.6709 30.7584 80.6709C31.0546 80.6709 31.3479 80.6126 31.6216 80.4992C31.8952 80.3859 32.1439 80.2197 32.3534 80.0103C32.5628 79.8008 32.729 79.5521 32.8423 79.2784C32.9557 79.0048 33.014 78.7115 33.014 78.4152V78.4191Z" fill="#aaa"/>
<path d="M62.8227 79.0146V77.7616H62.1051C62.1051 77.7481 62.1051 77.7325 62.1051 77.719C62.0838 77.492 62.0527 77.2671 62.012 77.0459L62.7064 76.852L62.3825 75.6417L61.6823 75.8357C61.5989 75.6087 61.5058 75.3876 61.403 75.1704L62.0333 74.8077L61.4069 73.7216L60.7726 74.0881C60.6349 73.8942 60.4895 73.7002 60.3343 73.5199L60.8541 73.0001L59.9677 72.1137L59.446 72.6354C59.2637 72.4829 59.0736 72.3374 58.8758 72.199L59.2462 71.5609L58.1601 70.9345L57.7799 71.5784C57.5644 71.4756 57.3437 71.3844 57.1185 71.3049L57.3125 70.5873L56.1022 70.2634L55.9083 70.983C55.6734 70.94 55.4364 70.9089 55.1984 70.8899V70.1528H53.9455V70.8976C53.7074 70.9167 53.4705 70.9478 53.2356 70.9907L53.0416 70.2711L51.8314 70.5951L52.0253 71.3127C51.8003 71.3941 51.5792 71.4853 51.3639 71.5862L50.9915 70.9286L49.9054 71.5551L50.2759 72.1952C50.0819 72.3309 49.8879 72.4764 49.7056 72.6296L49.1839 72.1079L48.2975 72.9943L48.8173 73.5141C48.6641 73.6964 48.5167 73.8864 48.379 74.0823L47.7448 73.7158L47.1125 74.8077L47.7428 75.1704C47.64 75.3876 47.5489 75.6087 47.4655 75.8357L46.7634 75.6417L46.4394 76.852L47.1357 77.0459C47.095 77.2671 47.062 77.492 47.0426 77.719C47.0426 77.7325 47.0426 77.7481 47.0426 77.7616H46.3367V79.0146H47.0485C47.0679 79.257 47.0989 79.4975 47.1396 79.7322L46.455 79.9262L46.7789 81.1364L47.4577 80.9541C47.5392 81.1849 47.6323 81.408 47.7331 81.6271L47.128 81.9763L47.7545 83.0624L48.3577 82.7133C48.4954 82.9072 48.6428 83.1012 48.7999 83.2951L48.3072 83.7858L49.1936 84.6722L49.6824 84.1835C49.8763 84.3406 50.0703 84.4899 50.2642 84.6276L49.919 85.225L51.0051 85.8514L51.3465 85.2696C51.5656 85.3724 51.7906 85.4635 52.0214 85.5508L51.8449 86.2103L53.0552 86.5342L53.2317 85.8728C53.4703 85.9155 53.7127 85.9484 53.9571 85.9678V86.6389H55.21V85.9542C55.4533 85.9354 55.6955 85.9036 55.9354 85.8592L56.1119 86.5206L57.3222 86.1967L57.1457 85.5372C57.3765 85.4538 57.6015 85.3588 57.8207 85.256L58.162 85.8379L59.2482 85.2114L58.9029 84.616C59.0969 84.4763 59.2908 84.327 59.4848 84.1699L59.9735 84.6586L60.8599 83.7723L60.3692 83.2816C60.5244 83.0876 60.6718 82.8937 60.8095 82.6997L61.4127 83.0488L62.0392 81.9627L61.434 81.6136C61.5368 81.3944 61.628 81.1713 61.7094 80.9405L62.3883 81.1229L62.7122 79.9126L62.0275 79.7186C62.0682 79.4839 62.0993 79.2434 62.1187 79.001L62.8227 79.0146ZM54.5797 83.3242C53.2793 83.3227 52.0325 82.8054 51.113 81.8859C50.1934 80.9663 49.6761 79.7196 49.6746 78.4191C49.6746 78.2756 49.6746 78.1263 49.6959 77.9634C49.8098 76.7469 50.3735 75.6167 51.2768 74.7939C52.1801 73.9712 53.3579 73.5152 54.5797 73.5152C55.8015 73.5152 56.9793 73.9712 57.8826 74.7939C58.7859 75.6167 59.3496 76.7469 59.4634 77.9634C59.479 78.1243 59.4848 78.2737 59.4848 78.4211C59.4832 79.7227 58.9648 80.9704 58.0435 81.8899C57.1223 82.8093 55.8735 83.3253 54.5719 83.3242H54.5797Z" fill="#aaa"/>
<path d="M56.8275 78.4191C56.8275 78.3532 56.8236 78.2814 56.8159 78.2038C56.7638 77.6447 56.5049 77.1251 56.0898 76.7468C55.6748 76.3686 55.1334 76.1589 54.5718 76.1589C54.0103 76.1589 53.4689 76.3686 53.0538 76.7468C52.6387 77.1251 52.3798 77.6447 52.3278 78.2038C52.3278 78.2853 52.3161 78.3532 52.3161 78.4152C52.3161 79.0135 52.5538 79.5872 52.9768 80.0103C53.3998 80.4333 53.9736 80.6709 54.5718 80.6709C55.1701 80.6709 55.7438 80.4333 56.1668 80.0103C56.5899 79.5872 56.8275 79.0135 56.8275 78.4152V78.4191Z" fill="#aaa"/>
<path d="M116.292 76.3984L116.088 75.1622L115.38 75.2791C115.379 75.2649 115.377 75.2509 115.373 75.237C115.315 75.0166 115.248 74.7997 115.172 74.5881L115.825 74.2837L115.309 73.1423L114.649 73.4477C114.53 73.2374 114.404 73.0341 114.265 72.8369L114.828 72.3763L114.033 71.4067L113.467 71.8717C113.302 71.7025 113.125 71.5351 112.942 71.3824L113.37 70.7849L112.351 70.0548L111.922 70.6545C111.717 70.533 111.506 70.4205 111.29 70.3165L111.55 69.6269L110.383 69.1787L110.122 69.8725C109.892 69.8059 109.66 69.7518 109.425 69.7104L109.499 68.9708L108.252 68.8483L108.178 69.5899C107.939 69.5858 107.7 69.5937 107.462 69.6137L107.344 68.8941L106.107 69.0982L106.229 69.8331C105.997 69.8907 105.768 69.9599 105.544 70.0406L105.235 69.3622L104.094 69.8789L104.402 70.5554C104.193 70.6724 103.99 70.7984 103.794 70.9329L103.314 70.3458L102.344 71.1408L102.814 71.712C102.645 71.8776 102.477 72.0527 102.322 72.2335L101.722 71.8038L100.992 72.8227L101.591 73.2505C101.468 73.4557 101.354 73.6672 101.25 73.883L100.564 73.6246L100.123 74.7983L100.804 75.0534C100.738 75.2845 100.684 75.5175 100.639 75.755L99.9144 75.678L99.792 76.9249L100.511 77.0028C100.506 77.2276 100.51 77.455 100.528 77.682C100.531 77.6954 100.533 77.7107 100.535 77.7241L99.8215 77.842L100.026 79.0782L100.728 78.9622C100.787 79.1982 100.856 79.4305 100.935 79.6554L100.291 79.9583L100.808 81.0996L101.448 80.8092C101.566 81.0236 101.694 81.2285 101.829 81.4283L101.289 81.8714L102.084 82.841L102.622 82.3982C102.79 82.5672 102.967 82.7345 103.153 82.9003L102.747 83.4647L103.766 84.1948L104.169 83.633C104.386 83.7564 104.601 83.8722 104.815 83.9764L104.572 84.6221L105.745 85.0632L105.987 84.4335C106.22 84.4993 106.457 84.5526 106.699 84.6011L106.632 85.2805L107.879 85.4029L107.946 84.7216C108.188 84.7248 108.433 84.7179 108.677 84.6972L108.787 85.3651L110.023 85.161L109.912 84.4854C110.149 84.4272 110.383 84.3564 110.612 84.2735L110.894 84.8973L112.035 84.3806L111.754 83.7587C111.968 83.6388 112.174 83.5084 112.374 83.3713L112.805 83.8898L113.775 83.0947L113.337 82.5635C113.506 82.3941 113.673 82.2152 113.839 82.0286L114.401 82.4312L115.131 81.4123L114.567 81.0081C114.688 80.7914 114.802 80.5761 114.906 80.3623L115.558 80.6085L116 79.4348L115.346 79.1889C115.411 78.9559 115.465 78.721 115.508 78.48L116.207 78.5493L116.33 77.3024L115.623 77.2226C115.624 76.9844 115.616 76.7421 115.596 76.4997L116.292 76.3984ZM108.863 81.9929C107.58 82.2038 106.265 81.8968 105.208 81.1394C104.15 80.3819 103.436 79.2358 103.223 77.9527C103.2 77.8111 103.175 77.6637 103.172 77.4992C103.083 76.2793 103.454 75.0703 104.211 74.1096C104.968 73.1489 106.056 72.5058 107.263 72.3066C108.47 72.1074 109.708 72.3664 110.733 73.0327C111.759 73.6991 112.498 74.7248 112.807 75.9084C112.848 76.0647 112.878 76.2111 112.902 76.3566C113.113 77.6391 112.806 78.9525 112.049 80.0091C111.292 81.0656 110.147 81.7789 108.865 81.9926L108.863 81.9929Z" fill="#aaa"/>
<path d="M110.29 76.7858C110.279 76.7208 110.263 76.6506 110.243 76.5753C110.101 76.0321 109.761 75.5616 109.29 75.256C108.818 74.9505 108.25 74.8318 107.696 74.9233C107.142 75.0147 106.642 75.3098 106.294 75.7506C105.946 76.1914 105.775 76.7462 105.815 77.3064C105.828 77.3868 105.828 77.4556 105.838 77.5169C105.935 78.1071 106.263 78.6345 106.75 78.983C107.236 79.3314 107.841 79.4724 108.431 79.375C109.021 79.2775 109.549 78.9496 109.897 78.4633C110.246 77.977 110.387 77.3723 110.289 76.782L110.29 76.7858Z" fill="#aaa"/>
<path d="M99.6634 46.696L83.6602 51.9911L84.2371 53.7349L100.24 48.4398L99.6634 46.696Z" fill="#aaa"/>
<path d="M80.1277 86.7984L79.7829 80.7742L93.0952 73.9768L82.1259 74.8021L81.5933 67.1143L77.5941 73.2619L67.8747 73.2813L73.2193 76.0822L65.8765 85.2776L72.7512 80.8456L72.628 91.6332L75.5959 85.2582L80.1277 86.7984Z" fill="#EC1F1F"/>
</svg>
