<svg width="114" height="76" viewBox="0 0 114 76" fill="none" xmlns="http://www.w3.org/2000/svg">
<path d="M39.6723 0.442871L23.8687 5.5795L24.4615 7.4035L40.2673 2.26904L39.6723 0.442871Z" fill="#aaa"/>
<path d="M13.2582 0.464585C10.9668 1.15913 10.4281 6.07074 12.053 11.4346L17.895 9.53915C16.4172 4.71626 14.3942 0.120557 13.2582 0.464585Z" fill="#aaa"/>
<path fill-rule="evenodd" clip-rule="evenodd" d="M66.2934 28.017H62.3825V3.45679H61.8178V28.017H59.8337V16.2724H59.2689V28.017H46.2867V29.9448H41.8793V31.5763H38.532V28.6964H36.4722V22.0863H52.6177V20.7513H37.5454L23.7994 25.2171V28.6964H21.7395V31.5763H9.943C9.29753 31.5754 8.67694 31.8252 8.21204 32.273L1.82695 38.4309C1.35973 38.8795 1.01178 39.4375 0.814567 40.0544C0.617354 40.6714 0.577115 41.3278 0.697507 41.9642L4.62244 58.6247H6.95492V61.1411H8.38948L10.3108 52.6637C10.4598 52.105 10.784 51.6087 11.2357 51.2478C11.6874 50.8868 12.2429 50.6801 12.8207 50.658H25.407L26.9216 53.8213C27.0497 54.0903 27.2514 54.3174 27.5034 54.4764C27.7554 54.6353 28.0474 54.7195 28.3453 54.7192H29.0225C29.3208 54.7197 29.6131 54.6355 29.8654 54.4766C30.1178 54.3177 30.32 54.0905 30.4484 53.8213L31.963 50.658H45.4926L47.0072 53.8213C47.1361 54.0901 47.3383 54.3171 47.5906 54.4759C47.8429 54.6348 48.1349 54.7192 48.4331 54.7192H49.1103C49.4085 54.7194 49.7007 54.6352 49.953 54.4763C50.2053 54.3174 50.4076 54.0903 50.5362 53.8213L52.0508 50.658H55.5657L57.5 49L56 47L54 44.5H56V38.5L57.5 41.5L61.5 38.5L57.5 35.5V30.5L60 33H63.5V30.5L66.2934 28.017ZM4.4693 41.7494C4.64721 41.8683 4.85637 41.9317 5.07034 41.9317C5.35727 41.9317 5.63246 41.8178 5.83535 41.6149C6.03824 41.412 6.15219 41.1368 6.15219 40.8499C6.15219 40.6359 6.08877 40.4268 5.96989 40.2488C5.85102 40.0709 5.68201 39.9323 5.48433 39.8504C5.28665 39.7685 5.06916 39.7471 4.85931 39.7888C4.64945 39.8306 4.45669 39.9336 4.30539 40.0849C4.15409 40.2362 4.05105 40.429 4.0093 40.6388C3.96756 40.8487 3.98896 41.0662 4.07084 41.2639C4.15273 41.4616 4.29139 41.6305 4.4693 41.7494ZM8.72529 48.6733C8.9032 48.7921 9.11236 48.8556 9.32633 48.8556C9.61325 48.8556 9.88845 48.7416 10.0913 48.5387C10.2942 48.3358 10.4082 48.0607 10.4082 47.7737C10.4082 47.5598 10.3448 47.3506 10.2259 47.1727C10.107 46.9948 9.93805 46.8561 9.74037 46.7742C9.54268 46.6924 9.32515 46.6709 9.11529 46.7127C8.90543 46.7544 8.71267 46.8575 8.56137 47.0088C8.41007 47.1601 8.30703 47.3528 8.26529 47.5627C8.22354 47.7725 8.24495 47.9901 8.32683 48.1877C8.40871 48.3854 8.54738 48.5544 8.72529 48.6733ZM47.4556 48.6733C47.6335 48.7921 47.8426 48.8556 48.0566 48.8556C48.3435 48.8556 48.6187 48.7416 48.8216 48.5387C49.0245 48.3358 49.1385 48.0607 49.1385 47.7737C49.1385 47.5598 49.075 47.3506 48.9562 47.1727C48.8373 46.9948 48.6683 46.8561 48.4706 46.7742C48.273 46.6924 48.0554 46.6709 47.8456 46.7127C47.6357 46.7544 47.4429 46.8575 47.2916 47.0088C47.1403 47.1601 47.0373 47.3528 46.9956 47.5627C46.9538 47.7725 46.9752 47.9901 47.0571 48.1877C47.139 48.3854 47.2776 48.5544 47.4556 48.6733ZM24.8552 36.6999H13.7078V37.5654H24.8552V36.6999ZM28.0904 48.6733C28.2683 48.7921 28.4775 48.8556 28.6915 48.8556C28.9784 48.8556 29.2536 48.7416 29.4565 48.5387C29.6594 48.3358 29.7733 48.0607 29.7733 47.7737C29.7733 47.5598 29.7099 47.3506 29.591 47.1727C29.4721 46.9948 29.3032 46.8561 29.1055 46.7742C28.9078 46.6924 28.6903 46.6709 28.4804 46.7127C28.2706 46.7544 28.0778 46.8575 27.9265 47.0088C27.7752 47.1601 27.6722 47.3528 27.6304 47.5627C27.5887 47.7725 27.6101 47.9901 27.692 48.1877C27.7738 48.3854 27.9125 48.5544 28.0904 48.6733ZM24.8552 39.4868H13.7078V40.3522H24.8552V39.4868ZM24.8552 42.2736H13.7078V43.1391H24.8552V42.2736Z" fill="#aaa"/>
<path fill-rule="evenodd" clip-rule="evenodd" d="M91.7927 43.1455L99.0492 45.0057C99.165 45.0352 99.2715 45.0933 99.3589 45.1749C99.4463 45.2564 99.5118 45.3585 99.5494 45.472L99.9836 46.8211C100.038 46.9909 100.028 47.1748 99.9543 47.3374L93.211 62.0347L89.7632 63.1446L90.6118 65.7809L89.2505 66.2191L84.7428 58.5075C84.4303 58.0208 83.9697 57.6473 83.429 57.442C82.8882 57.2368 82.2959 57.2106 81.7391 57.3673L69.7582 61.2239L69.2858 64.6991C69.2455 64.9945 69.1225 65.2725 68.931 65.5011C68.7396 65.7296 68.4874 65.8993 68.2036 65.9908L67.5589 66.1983C67.2752 66.2898 66.9713 66.2992 66.6824 66.2252C66.3935 66.1513 66.1314 65.9971 65.9265 65.7805L63.5155 63.2334L58.8872 64.7232L58.5125 61.001L55.1972 60.4924L56.8273 55.7656L60.3285 53.588L57.9814 51.1919L61.1762 48.0625L58.0304 46.4488L58.2269 42.9271L58.2995 43.1526L62.4929 41.8028L62.9901 43.3475L66.1825 42.3198L65.2544 39.4364L67.1245 38.8344L68.0527 41.7179L71.727 40.5351L74.5116 49.1855L75.3354 48.9203L72.5509 40.2699L75.4591 39.3338C75.8908 39.1956 76.3525 39.1817 76.7917 39.2935L90.232 42.7386L82.9244 45.0909L83.1896 45.9148L91.7927 43.1455ZM78.7484 56.245C78.9542 56.3036 79.1727 56.2999 79.3764 56.2344C79.6495 56.1465 79.8765 55.9536 80.0075 55.6983C80.1384 55.4431 80.1626 55.1462 80.0747 54.8731C80.0092 54.6694 79.8846 54.4897 79.717 54.3568C79.5493 54.2239 79.346 54.1437 79.1327 54.1263C78.9195 54.1089 78.7058 54.1552 78.5189 54.2592C78.3319 54.3632 78.18 54.5204 78.0823 54.7108C77.9846 54.9012 77.9456 55.1162 77.9702 55.3288C77.9948 55.5413 78.0818 55.7418 78.2203 55.9049C78.3589 56.068 78.5426 56.1863 78.7484 56.245Z" fill="#aaa"/>
<path d="M25.7167 63.7506C25.8162 63.5343 25.9049 63.3179 25.985 63.1015L26.6471 63.279L26.963 62.0976L26.2944 61.918C26.3361 61.6867 26.3657 61.4534 26.3831 61.2191H27.0777V59.9966H26.3788C26.3788 59.9815 26.3788 59.9685 26.3788 59.9555C26.3572 59.7391 26.3269 59.5228 26.2879 59.3064L26.9652 59.1246L26.6493 57.9454L25.9655 58.1272C25.8855 57.9108 25.7946 57.6944 25.6951 57.4781L26.3095 57.1232L25.6973 56.0652L25.0806 56.4222C24.9464 56.2296 24.8015 56.0457 24.6478 55.8683L25.1563 55.3598L24.2908 54.4943L23.7824 55.0028C23.6049 54.8535 23.4188 54.7107 23.2284 54.57L23.5876 53.9469L22.5296 53.3346L22.1682 53.9599C21.9519 53.8625 21.7355 53.7716 21.5191 53.6937L21.7052 52.9949L20.5238 52.679L20.3378 53.38C20.1214 53.3389 19.8791 53.3086 19.6454 53.2891V52.5621H18.4229V53.2891C18.1892 53.3086 17.9577 53.3389 17.7305 53.38L17.5444 52.679L16.363 52.9949L16.5513 53.6937C16.3349 53.7738 16.1185 53.8625 15.9022 53.9599L15.5408 53.3346L14.4828 53.9469L14.8441 54.57C14.6515 54.702 14.4655 54.8448 14.2881 55.0028L13.7839 54.4813L12.9184 55.3468L13.4269 55.8553C13.2754 56.0327 13.1326 56.2166 12.9942 56.4092L12.3753 56.0522L11.763 57.1102L12.3797 57.4651C12.2776 57.6766 12.1866 57.8933 12.107 58.1142L11.4255 57.9324L11.1074 59.1117L11.7868 59.2934C11.7479 59.5098 11.7154 59.7261 11.6959 59.9425C11.6959 59.9555 11.6959 59.9685 11.6959 59.9836H10.9971V61.2061H11.6916C11.7111 61.442 11.7392 61.6756 11.7803 61.905L11.1117 62.0846L11.4298 63.266L12.0789 63.0885C12.159 63.3049 12.2499 63.5213 12.3494 63.7377L11.7565 64.0774L12.0464 64.5793L12.3688 65.1376L12.9573 64.7979C13.0915 64.9926 13.2343 65.1808 13.3901 65.3626L12.9097 65.8408L13.7752 66.7063L14.2512 66.2302C14.433 66.3839 14.6191 66.5288 14.8138 66.663L14.4784 67.245L15.5365 67.8552L15.8718 67.2775C16.0882 67.3792 16.3046 67.47 16.521 67.5523L16.3479 68.2014L17.5293 68.5173L17.7002 67.8682C17.9339 67.91 18.1697 67.9403 18.4078 67.959V68.6276H19.6302V67.9612C19.8704 67.9396 20.1041 67.9093 20.3378 67.8682L20.5087 68.5173L21.6901 68.2014L21.517 67.5523C21.7414 67.4719 21.9617 67.3802 22.1769 67.2775L22.5101 67.8552L23.5681 67.245L23.2328 66.663C23.4275 66.5267 23.6158 66.3817 23.7953 66.2302L24.2714 66.7063L25.1368 65.8408L24.6565 65.3626C24.8101 65.1808 24.9529 64.9926 25.0892 64.7979L25.6756 65.1376L25.972 64.6226L26.2879 64.0774L25.7167 63.7506ZM19.0395 65.4145C17.7709 65.4134 16.5545 64.9091 15.6573 64.0122C14.76 63.1154 14.2551 61.8992 14.2534 60.6306C14.2534 60.4899 14.2534 60.345 14.2772 60.1849C14.3954 59.0045 14.9479 57.9101 15.8275 57.1142C16.7071 56.3183 17.8511 55.8775 19.0374 55.8775C20.2236 55.8775 21.3676 56.3183 22.2472 57.1142C23.1268 57.9101 23.6793 59.0045 23.7975 60.1849C23.8127 60.3406 23.8191 60.4878 23.8191 60.6306C23.8174 61.8981 23.3134 63.1133 22.4176 64.0099C21.5217 64.9066 20.307 65.4117 19.0395 65.4145Z" fill="#aaa"/>
<path d="M19.0393 62.8311C19.6224 62.83 20.1812 62.5977 20.5933 62.1852C21.0053 61.7727 21.237 61.2137 21.2376 60.6306C21.2376 60.5679 21.2376 60.4965 21.2376 60.4143C21.1862 59.8694 20.9334 59.3634 20.5286 58.995C20.1239 58.6267 19.5963 58.4226 19.049 58.4226C18.5018 58.4226 17.9742 58.6267 17.5695 58.995C17.1647 59.3634 16.9119 59.8694 16.8605 60.4143C16.8605 60.4922 16.8496 60.5592 16.8496 60.6198C16.8473 61.2032 17.0766 61.7638 17.4871 62.1783C17.8976 62.5929 18.4559 62.8277 19.0393 62.8311Z" fill="#aaa"/>
<path d="M45.5381 63.7506C45.6376 63.5343 45.7285 63.3179 45.8064 63.1015L46.4685 63.2789L46.7844 62.0976L46.1179 61.918C46.1569 61.6886 46.1872 61.455 46.2067 61.2191H46.9012V59.9966H46.2024C46.2024 59.9815 46.2024 59.9685 46.2024 59.9555C46.1829 59.7391 46.1504 59.5228 46.1114 59.3064L46.7887 59.1246L46.4728 57.9454L45.7912 58.1272C45.709 57.9108 45.6203 57.6944 45.5186 57.4781L46.1331 57.1232L45.5229 56.0652L44.9041 56.4222C44.77 56.2296 44.6272 56.0457 44.4714 55.8683L44.9777 55.3598L44.1122 54.4943L43.6038 55.0028C43.4242 54.8535 43.2402 54.7107 43.0477 54.57L43.4068 53.9469L42.3488 53.3346L41.9875 53.9599C41.7711 53.8625 41.5547 53.7716 41.3384 53.6937L41.5244 52.9949L40.3452 52.679L40.1569 53.38C39.9297 53.3389 39.7004 53.3086 39.4646 53.2891V52.5621H38.2443V53.2891C38.0084 53.3086 37.7791 53.3389 37.5519 53.38L37.3636 52.679L36.1822 52.9949L36.3705 53.6937C36.1541 53.7738 35.9377 53.8625 35.7213 53.9599L35.36 53.3346L34.302 53.9469L34.6612 54.57C34.4686 54.702 34.2847 54.8448 34.1051 55.0028L33.5966 54.4943L32.7311 55.3598L33.2374 55.8683C33.086 56.0457 32.9432 56.2296 32.8047 56.4222L32.1859 56.0652L31.5757 57.1232L32.1902 57.4781C32.0907 57.6944 31.9998 57.9108 31.9198 58.1272L31.236 57.9454L30.9201 59.1246L31.5974 59.3064C31.5584 59.5228 31.5281 59.7391 31.5065 59.9555C31.5065 59.9685 31.5065 59.9815 31.5065 59.9966H30.8054V61.2191H31.5259C31.5433 61.455 31.5735 61.6886 31.6125 61.918L30.9461 62.0976L31.262 63.2789L31.9241 63.1015C32.002 63.3179 32.0929 63.5343 32.1924 63.7506L31.6017 64.0903L31.9263 64.6551L32.2118 65.1506L32.8003 64.8108C32.9345 65.0056 33.0795 65.1938 33.2331 65.3756L32.7549 65.8538L33.6204 66.7192L34.0986 66.2432C34.2782 66.3968 34.4664 66.5418 34.6612 66.676L34.3258 67.258L35.3838 67.8682L35.7171 67.2905C35.9334 67.3921 36.1498 67.483 36.3662 67.5652L36.1931 68.2144L37.3744 68.5303L37.5476 67.8811C37.7798 67.923 38.0156 67.9533 38.2551 67.972V68.6406H39.4754V67.9742C39.7156 67.9525 39.9514 67.9223 40.1829 67.8811L40.356 68.5303L41.5352 68.2144L41.3643 67.5652C41.5851 67.4846 41.8018 67.3929 42.0134 67.2905L42.3466 67.8682L43.4047 67.258L43.0693 66.676C43.2641 66.5396 43.4523 66.3947 43.6319 66.2432L44.11 66.7192L44.9755 65.8538L44.4973 65.3756C44.6488 65.1938 44.7938 65.0056 44.9301 64.8108L45.5186 65.1506L45.7783 64.7005L46.1288 64.0903L45.5381 63.7506ZM38.8609 65.4145C37.5926 65.4128 36.3768 64.9082 35.48 64.0114C34.5833 63.1147 34.0787 61.8988 34.077 60.6306C34.077 60.4899 34.0769 60.345 34.0986 60.1849C34.2168 59.0045 34.7693 57.9101 35.6489 57.1142C36.5285 56.3183 37.6724 55.8775 38.8587 55.8775C40.045 55.8775 41.1889 56.3183 42.0686 57.1142C42.9482 57.9101 43.5007 59.0045 43.6189 60.1849C43.634 60.3406 43.6405 60.4878 43.6405 60.6306C43.6394 61.8983 43.1356 63.1138 42.2396 64.0105C41.3436 64.9073 40.1286 65.4122 38.8609 65.4145Z" fill="#aaa"/>
<path d="M38.8612 62.8311C39.4446 62.8305 40.004 62.5985 40.4165 62.186C40.8291 61.7734 41.0611 61.2141 41.0617 60.6306C41.0617 60.5679 41.0617 60.4965 41.0509 60.4143C40.9994 59.8694 40.7466 59.3634 40.3418 58.995C39.9371 58.6267 39.4095 58.4226 38.8623 58.4226C38.315 58.4226 37.7874 58.6267 37.3827 58.995C36.978 59.3634 36.7251 59.8694 36.6737 60.4143C36.6662 60.4825 36.6626 60.5511 36.6629 60.6198C36.6617 60.9094 36.7177 61.1964 36.8276 61.4644C36.9375 61.7323 37.0992 61.976 37.3034 62.1814C37.5076 62.3868 37.7503 62.5499 38.0176 62.6614C38.2849 62.7729 38.5715 62.8305 38.8612 62.8311Z" fill="#aaa"/>
<path d="M111.726 63.1885C111.828 62.9721 111.917 62.7558 111.997 62.5394L112.657 62.7168L112.975 61.5354L112.306 61.3558C112.347 61.1265 112.375 60.8928 112.395 60.657H113.089V59.4345H112.39C112.389 59.4208 112.389 59.4071 112.39 59.3934C112.369 59.177 112.338 58.9606 112.3 58.7443L112.977 58.5625L112.659 57.3833L111.977 57.565C111.897 57.3487 111.806 57.1323 111.707 56.9159L112.319 56.5611L111.709 55.503L111.09 55.86C110.956 55.6675 110.813 55.4836 110.657 55.3061L111.164 54.7977L110.298 53.9322L109.79 54.4407C109.612 54.2914 109.426 54.1486 109.236 54.0079L109.595 53.3848L108.537 52.7724L108.176 53.3977C107.959 53.3004 107.743 53.2095 107.526 53.1316L107.715 52.4327L106.533 52.1168L106.347 52.8179C106.12 52.7768 105.888 52.7465 105.655 52.727V52H104.432V52.727C104.199 52.7465 103.967 52.7768 103.74 52.8179L103.554 52.1168L102.372 52.4327L102.559 53.1316C102.342 53.2117 102.126 53.3004 101.909 53.3977L101.548 52.7724L100.49 53.3848L100.849 54.0079C100.659 54.1399 100.473 54.2827 100.295 54.4407L99.7868 53.9322L98.9213 54.7977L99.4298 55.3061C99.2784 55.4836 99.1356 55.6675 98.9971 55.86L98.3783 55.503L97.766 56.5611L98.3826 56.9159C98.2806 57.1275 98.1896 57.3441 98.11 57.565L97.4262 57.3833L97.1104 58.5625L97.7897 58.7443C97.7487 58.959 97.7184 59.1756 97.6989 59.3934C97.6989 59.4063 97.6989 59.4193 97.6989 59.4345H97V60.657H97.6945C97.712 60.8913 97.7416 61.1246 97.7832 61.3558L97.1147 61.5354L97.4306 62.7168L98.0927 62.5394C98.1727 62.7558 98.2614 62.9721 98.361 63.1885L97.7703 63.5282L98.1338 64.1578L98.3826 64.5906L98.9711 64.2509C99.1053 64.4456 99.2481 64.6339 99.4038 64.8156L98.9235 65.2938L99.789 66.1593L100.265 65.6833C100.445 65.8369 100.633 65.9818 100.828 66.116L100.492 66.698L101.55 67.3082L101.883 66.7305C102.1 66.8322 102.316 66.9231 102.533 67.0053L102.359 67.6544L103.541 67.9703L103.712 67.3212C103.945 67.3623 104.179 67.3926 104.419 67.412V68.0806H105.642V67.4142C105.88 67.3926 106.116 67.3623 106.349 67.3212L106.52 67.9703L107.702 67.6544L107.529 67.0053C107.75 66.925 107.966 66.8333 108.178 66.7305L108.513 67.3082L109.571 66.698L109.236 66.116C109.43 65.9797 109.617 65.8347 109.798 65.6833L110.274 66.1593L111.14 65.2938L110.662 64.8156C110.815 64.6339 110.958 64.4456 111.094 64.2509L111.683 64.5906L111.899 64.2033L112.287 63.5304L111.726 63.1885ZM105.051 64.8524C103.782 64.8512 102.566 64.3469 101.669 63.4501C100.772 62.5532 100.267 61.3371 100.265 60.0684C100.265 59.9278 100.265 59.7828 100.287 59.6227C100.405 58.4424 100.957 57.348 101.837 56.5521C102.717 55.7561 103.861 55.3154 105.047 55.3154C106.233 55.3154 107.377 55.7561 108.257 56.5521C109.136 57.348 109.689 58.4424 109.807 59.6227C109.82 59.7785 109.829 59.9256 109.829 60.0684C109.827 61.3356 109.323 62.5504 108.428 63.447C107.532 64.3436 106.318 64.849 105.051 64.8524Z" fill="#aaa"/>
<path d="M105.051 62.2691C105.634 62.268 106.193 62.0357 106.605 61.6232C107.017 61.2107 107.249 60.6517 107.25 60.0686C107.25 60.0059 107.25 59.9345 107.25 59.8522C107.198 59.3074 106.945 58.8014 106.541 58.433C106.136 58.0647 105.608 57.8606 105.061 57.8606C104.514 57.8606 103.986 58.0647 103.581 58.433C103.177 58.8014 102.924 59.3074 102.872 59.8522C102.872 59.9301 102.862 59.9972 102.862 60.0578C102.859 60.6412 103.089 61.2017 103.499 61.6163C103.91 62.0309 104.468 62.2657 105.051 62.2691Z" fill="#aaa"/>
<path d="M51.5443 15.2945L49.3589 8.56537L29.3772 15.0565L29.1132 14.2408L49.0949 7.74966L46.9075 1.02271L6.94385 14.0049L11.5807 28.2854L51.5443 15.2945ZM9.61171 16.1838C9.46526 16.1842 9.32197 16.1412 9.19999 16.0601C9.07802 15.9791 8.98286 15.8636 8.92652 15.7285C8.87018 15.5933 8.85521 15.4444 8.88352 15.3007C8.91183 15.1571 8.98212 15.025 9.08552 14.9213C9.18892 14.8176 9.32078 14.7469 9.46438 14.7182C9.60798 14.6894 9.75687 14.704 9.89221 14.7599C10.0275 14.8159 10.1433 14.9107 10.2247 15.0324C10.3061 15.1542 10.3495 15.2973 10.3495 15.4438C10.3495 15.6397 10.2719 15.8276 10.1336 15.9663C9.99526 16.105 9.80759 16.1832 9.61171 16.1838ZM12.9611 26.5241C12.8152 26.5241 12.6725 26.4808 12.5512 26.3998C12.4299 26.3187 12.3353 26.2034 12.2795 26.0686C12.2236 25.9338 12.209 25.7855 12.2375 25.6423C12.2659 25.4992 12.3362 25.3677 12.4394 25.2646C12.5426 25.1614 12.674 25.0911 12.8172 25.0626C12.9603 25.0342 13.1086 25.0488 13.2435 25.1046C13.3783 25.1605 13.4936 25.255 13.5746 25.3764C13.6557 25.4977 13.699 25.6403 13.699 25.7863C13.6995 25.8836 13.6809 25.9801 13.6441 26.0703C13.6073 26.1604 13.553 26.2424 13.4845 26.3116C13.416 26.3807 13.3344 26.4356 13.2446 26.4732C13.1548 26.5108 13.0585 26.5303 12.9611 26.5306V26.5241Z" fill="#aaa"/>
<path d="M60.2704 36.2781L66.111 34.7626L75.3791 46.4897L72.4259 35.8932L79.8614 33.8684L73.0507 31.1477L71.1321 21.6196L69.4297 27.4085L58.9766 22.0045L64.6667 27.8805L54.063 29.868L60.8952 31.5327L60.2704 36.2781Z" fill="#EC1F1F"/>
</svg>
