<svg width="106" height="56" viewBox="0 0 106 56" fill="none" xmlns="http://www.w3.org/2000/svg">
<path d="M26.0571 46.9461H26.8267V45.5914H26.0523C26.0523 45.577 26.0523 45.5603 26.0523 45.5459C26.0283 45.2997 25.9947 45.0599 25.9516 44.8266L26.7021 44.6252L26.352 43.316L25.5943 43.5198C25.5056 43.2801 25.4049 43.0403 25.2946 42.8005L25.9756 42.4073L25.297 41.2348L24.6137 41.6305C24.465 41.4195 24.3044 41.2133 24.1341 41.0167L24.6976 40.4556L23.7385 39.4965L23.1751 40.06C22.9785 39.8945 22.7723 39.7363 22.5613 39.5805L22.9401 38.8923L21.7676 38.2138L21.3672 38.9091C21.1275 38.7988 20.8877 38.7005 20.6479 38.6118L20.8541 37.8397L19.545 37.4873L19.3388 38.2641C19.099 38.221 18.8305 38.1874 18.5715 38.1658V37.3602H17.2168V38.1658C16.9579 38.1874 16.7013 38.221 16.452 38.2641L16.2434 37.4873L14.9343 37.8397L15.1429 38.6142C14.8981 38.7 14.6581 38.7984 14.4235 38.9091L14.0231 38.2138L12.8699 38.8923L13.2703 39.5829C13.0569 39.7315 12.8507 39.8874 12.6541 40.0624L12.0882 39.4917L11.1291 40.4508L11.6926 41.0119C11.5248 41.2085 11.3665 41.4147 11.2131 41.6257L10.5273 41.2301L9.85117 42.4025L10.5321 42.7957C10.4186 43.0307 10.3179 43.2705 10.23 43.515L9.47475 43.3112L9.12228 44.6204L9.87516 44.8218C9.832 45.0615 9.79604 45.3013 9.77446 45.5411C9.77446 45.5555 9.77446 45.5723 9.77446 45.5866H9V46.9413H9.76966C9.79124 47.2027 9.8224 47.4616 9.86796 47.7182L9.46036 47.8261L9.12708 47.9148L9.47954 49.2239L10.1988 49.0273C10.2876 49.2671 10.3883 49.5068 10.4985 49.7466L9.84399 50.1254L10.5201 51.2979L11.1723 50.9215C11.321 51.1373 11.4792 51.3459 11.6518 51.5473L11.1196 52.0772L12.0786 53.0362L12.6061 52.5063C12.8075 52.6766 13.0137 52.8372 13.2295 52.9859L12.8699 53.638L14.0423 54.3166L14.414 53.6764C14.6537 53.7867 14.8935 53.8898 15.1333 53.9785L14.9415 54.6978L16.2506 55.0479L16.44 54.3286C16.699 54.3741 16.9603 54.4101 17.224 54.4317V55.1702H18.5787V54.4317C18.8417 54.4108 19.1034 54.3763 19.3628 54.3286L19.5522 55.0479L20.8613 54.6978L20.6695 53.9785C20.9182 53.8902 21.1623 53.7894 21.4008 53.6764L21.77 54.3166L22.9401 53.638L22.5685 52.9931C22.7844 52.8441 22.9925 52.6841 23.1919 52.5135L23.7194 53.0434L24.6784 52.0843L24.1461 51.5545C24.3164 51.3531 24.4746 51.1445 24.6257 50.9287L25.2754 51.3051L25.954 50.1326L25.2994 49.7538C25.4097 49.514 25.508 49.2743 25.5967 49.0345L26.3304 49.2311L26.6805 47.922L26.3472 47.8333L25.9396 47.7254C25.9921 47.4678 26.0314 47.2077 26.0571 46.9461ZM17.905 51.6048C16.4996 51.6023 15.1525 51.0425 14.1592 50.0483C13.1659 49.0541 12.6074 47.7065 12.6061 46.3011C12.6061 46.1477 12.6061 45.987 12.6325 45.8216C12.7635 44.5136 13.3757 43.3009 14.3504 42.4189C15.3252 41.5369 16.5928 41.0485 17.9074 41.0485C19.2219 41.0485 20.4896 41.5369 21.4643 42.4189C22.439 43.3009 23.0513 44.5136 23.1823 45.8216C23.1991 45.9966 23.2062 46.1573 23.2062 46.3155C23.2012 47.7188 22.6406 49.0631 21.6472 50.0542C20.6538 51.0454 19.3083 51.6029 17.905 51.6048Z" fill="#aaa"/>
<path d="M20.3458 46.3012C20.3458 46.2317 20.3458 46.1549 20.3458 46.0614C20.2888 45.4577 20.0087 44.8969 19.5602 44.4887C19.1116 44.0806 18.527 43.8544 17.9206 43.8544C17.3142 43.8544 16.7295 44.0806 16.281 44.4887C15.8325 44.8969 15.5524 45.4577 15.4953 46.0614C15.4953 46.1477 15.4953 46.2221 15.4953 46.2868C15.4851 46.6133 15.5406 46.9385 15.6584 47.2432C15.7763 47.5478 15.9542 47.8257 16.1815 48.0602C16.4088 48.2948 16.681 48.4813 16.9818 48.6087C17.2826 48.7361 17.6059 48.8017 17.9326 48.8017C18.2592 48.8017 18.5826 48.7361 18.8834 48.6087C19.1842 48.4813 19.4563 48.2948 19.6836 48.0602C19.911 47.8257 20.0889 47.5478 20.2067 47.2432C20.3246 46.9385 20.3801 46.6133 20.3698 46.2868L20.3458 46.3012Z" fill="#aaa"/>
<path d="M95.0571 46.9461H95.8267V45.5914H95.0523C95.0523 45.5771 95.0523 45.5603 95.0523 45.5459C95.0283 45.2997 94.9948 45.06 94.9516 44.8266L95.7021 44.6252L95.352 43.3161L94.5944 43.5198C94.5056 43.2801 94.4049 43.0403 94.2946 42.8005L94.9756 42.4073L94.297 41.2349L93.6137 41.6305C93.465 41.4195 93.3044 41.2133 93.1341 41.0167L93.6976 40.4556L92.7385 39.4965L92.1751 40.06C91.9785 39.8946 91.7723 39.7363 91.5613 39.5805L91.9593 38.8899L90.7868 38.2114L90.3864 38.9067C90.1466 38.7964 89.9069 38.6981 89.6671 38.6094L89.8733 37.8374L88.5642 37.4849L88.358 38.2617C88.1182 38.2186 87.8497 38.185 87.5907 38.1634V37.3578H86.236V38.1634C85.9771 38.185 85.7205 38.2186 85.4712 38.2617L85.2626 37.4849L83.9535 37.8374L84.1621 38.6118C83.9173 38.6976 83.6773 38.796 83.4427 38.9067L83.0423 38.2114L81.8699 38.8899L82.2703 39.5805C82.0569 39.7291 81.8507 39.885 81.6541 40.06L81.0906 39.4942L80.1315 40.4532L80.6926 41.0143C80.5248 41.2109 80.3665 41.4171 80.2131 41.6281L79.5273 41.2325L78.8488 42.4049L79.5321 42.7982C79.4202 43.0331 79.3195 43.2729 79.23 43.5175L78.4747 43.3137L78.1223 44.6228L78.8752 44.8242C78.832 45.064 78.796 45.3037 78.7744 45.5435C78.7744 45.5579 78.7744 45.5747 78.7744 45.589H78V46.9437H78.7697C78.7913 47.2051 78.8224 47.464 78.868 47.7206L78.4604 47.8285L78.1271 47.9172L78.4795 49.2263L79.1988 49.0297C79.2876 49.2695 79.3883 49.5093 79.4985 49.749L78.8416 50.1279L79.5201 51.3003L80.1723 50.9239C80.321 51.1397 80.4792 51.3483 80.6518 51.5497L80.1219 52.0796L81.081 53.0386L81.6085 52.5088C81.8099 52.679 82.0161 52.8396 82.2319 52.9883L81.8603 53.6333L83.0327 54.3118L83.4044 53.6716C83.6441 53.7819 83.8839 53.885 84.1237 53.9737L83.9319 54.693L85.241 55.0431L85.4304 54.3238C85.6894 54.3693 85.9507 54.4053 86.2144 54.4269V55.1654H87.5691V54.4269C87.8321 54.406 88.0938 54.3716 88.3532 54.3238L88.5426 55.0431L89.8517 54.693L89.6599 53.9737C89.9046 53.8851 90.1446 53.7843 90.3792 53.6716L90.7485 54.3118L91.9209 53.6333L91.5493 52.9883C91.7652 52.8393 91.9733 52.6793 92.1727 52.5088L92.7002 53.0386L93.6593 52.0796L93.127 51.5497C93.2972 51.3483 93.4555 51.1397 93.6065 50.9239L94.2563 51.3003L94.9348 50.1279L94.2802 49.749C94.3905 49.5093 94.4888 49.2695 94.5776 49.0297L95.3113 49.2263L95.6613 47.9172L95.328 47.8285L94.9204 47.7206C94.9793 47.465 95.0249 47.2065 95.0571 46.9461ZM86.9194 51.6048C85.5132 51.6036 84.1649 51.0444 83.1705 50.05C82.1762 49.0557 81.617 47.7074 81.6157 46.3012C81.6157 46.1477 81.6157 45.9871 81.6421 45.8216C81.7731 44.5136 82.3853 43.3009 83.36 42.4189C84.3348 41.5369 85.6024 41.0485 86.917 41.0485C88.2315 41.0485 89.4992 41.5369 90.4739 42.4189C91.4486 43.3009 92.0609 44.5136 92.1919 45.8216C92.2087 45.9967 92.2158 46.1573 92.2158 46.3155C92.2108 47.718 91.6509 49.0615 90.6585 50.0526C89.6661 51.0436 88.3219 51.6017 86.9194 51.6048Z" fill="#aaa"/>
<path d="M89.3555 46.3012C89.3555 46.2317 89.3555 46.1549 89.3555 46.0614C89.2985 45.4577 89.0183 44.8969 88.5698 44.4887C88.1213 44.0806 87.5367 43.8544 86.9302 43.8544C86.3238 43.8544 85.7392 44.0806 85.2907 44.4887C84.8422 44.8969 84.562 45.4577 84.505 46.0614C84.505 46.1477 84.505 46.2221 84.505 46.2868C84.4947 46.6133 84.5502 46.9385 84.6681 47.2432C84.786 47.5478 84.9639 47.8257 85.1912 48.0602C85.4185 48.2948 85.6906 48.4813 85.9914 48.6087C86.2922 48.7361 86.6156 48.8017 86.9422 48.8017C87.2689 48.8017 87.5922 48.7361 87.893 48.6087C88.1938 48.4813 88.466 48.2948 88.6933 48.0602C88.9206 47.8257 89.0985 47.5478 89.2164 47.2432C89.3342 46.9385 89.3897 46.6133 89.3795 46.2868L89.3555 46.3012Z" fill="#aaa"/>
<path d="M49.1594 12.6946L50.4297 9.80136L53.9213 10.5106L54.1204 9.5308L50.8426 8.86498L51.1901 8.06946L64.0922 10.6903L64.2913 9.71045L51.6006 7.1326L52.6971 4.63712L31.712 0.37442L31.8257 9.17362L49.1594 12.6946Z" fill="#aaa"/>
<path d="M51.8109 2.85707L37.7456 0L37.5838 0.796546L51.6491 3.65362L51.8109 2.85707Z" fill="#aaa"/>
<path fill-rule="evenodd" clip-rule="evenodd" d="M45.7203 48.2603L44.5764 42.8694L46.5816 39.6322L42.7284 35.0059L47.7 32.2161L46.8878 27.5427L50.3016 25.0236L48.0062 20.1266L51.2709 18.5963L48.5233 13.8533L14.29 8.6906L11.7133 9.85873L10.7161 12.6448L29.7399 15.5137L29.5933 16.4858L10.3893 13.5896L6.23167 25.1763L5.86339 27.6183L3.25544 27.225L1.5392 38.6052L4.14715 38.9985L3.70594 41.9241L4.97436 42.1154L4.7752 43.436L6.62448 43.7149C6.64104 43.5707 6.67621 43.4293 6.72914 43.2942L9.98457 34.9565C10.1876 34.4886 10.5354 34.0982 10.9768 33.8426C11.4182 33.5871 11.9299 33.4799 12.4368 33.5368L26.3656 35.6374C26.8667 35.7325 27.3241 35.9859 27.6705 36.3602C28.0169 36.7346 28.234 37.2102 28.2901 37.7171L28.9442 46.6444C28.9549 46.7891 28.9468 46.9346 28.9201 47.0773L30.7694 47.3562L30.9686 46.0356L45.7203 48.2603ZM40.9651 43.0246C41.095 42.8824 41.1797 42.7049 41.2085 42.5145L41.2108 42.5148C41.249 42.2618 41.1857 42.0039 41.0348 41.7973C40.8839 41.5906 40.6575 41.4519 40.4049 41.4112C40.2149 41.3802 40.0199 41.4063 39.8447 41.4863C39.6696 41.5664 39.5222 41.6967 39.4213 41.8607C39.3203 42.0247 39.2704 42.215 39.2779 42.4074C39.2854 42.5998 39.35 42.7856 39.4633 42.9413C39.5767 43.097 39.7338 43.2154 39.9146 43.2815C40.0955 43.3477 40.2919 43.3586 40.479 43.3128C40.666 43.2671 40.8352 43.1668 40.9651 43.0246ZM44.4135 17.5157L37.4076 16.4591L36.351 23.4651L43.357 24.5216L44.4135 17.5157ZM33.4661 40.5206C33.3241 40.3913 33.147 40.307 32.9571 40.2783L32.9556 40.2878C32.8301 40.2673 32.7018 40.2719 32.5781 40.3014C32.4544 40.331 32.3379 40.3848 32.2352 40.4598C32.1325 40.5348 32.0457 40.6294 31.9799 40.7383C31.9142 40.8471 31.8707 40.9679 31.8521 41.0937C31.8234 41.2836 31.8517 41.4778 31.9334 41.6516C32.0151 41.8254 32.1465 41.9711 32.311 42.0702C32.4755 42.1694 32.6657 42.2175 32.8576 42.2085C33.0494 42.1996 33.2343 42.1339 33.3888 42.0199C33.5434 41.9059 33.6606 41.7486 33.7258 41.5679C33.7909 41.3872 33.801 41.1913 33.7548 41.0049C33.7086 40.8185 33.6081 40.6499 33.4661 40.5206ZM22.5737 17.4816C22.4318 17.3523 22.2546 17.268 22.0647 17.2393L22.0633 17.2488C21.8102 17.2106 21.5524 17.2739 21.3457 17.4248C21.1391 17.5757 21.0003 17.8021 20.9597 18.0547C20.931 18.2446 20.9594 18.4388 21.041 18.6126C21.1227 18.7864 21.2542 18.9321 21.4186 19.0312C21.5831 19.1303 21.7733 19.1785 21.9652 19.1695C22.157 19.1606 22.3419 19.0949 22.4965 18.9809C22.651 18.8668 22.7682 18.7095 22.8334 18.5289C22.8985 18.3482 22.9086 18.1523 22.8624 17.9658C22.8162 17.7794 22.7157 17.6109 22.5737 17.4816ZM15.1316 16.3592C14.9896 16.2299 14.8124 16.1456 14.6225 16.117L14.6211 16.1264C14.3681 16.0883 14.1102 16.1515 13.9036 16.3024C13.6969 16.4533 13.5582 16.6797 13.5175 16.9324C13.4889 17.1223 13.5172 17.3164 13.5989 17.4902C13.6806 17.664 13.812 17.8097 13.9765 17.9089C14.141 18.008 14.3312 18.0561 14.523 18.0472C14.7149 18.0382 14.8998 17.9726 15.0543 17.8585C15.2088 17.7445 15.3261 17.5872 15.3912 17.4065C15.4564 17.2258 15.4665 17.0299 15.4202 16.8435C15.374 16.6571 15.2736 16.4886 15.1316 16.3592Z" fill="#aaa"/>
<path fill-rule="evenodd" clip-rule="evenodd" d="M59.6113 47.9861L73.6041 45.9066L73.8004 47.2276L75.6479 46.953C75.6216 46.8103 75.6138 46.6648 75.6248 46.5201L76.2981 37.5942C76.3552 37.0874 76.5734 36.6123 76.9206 36.2387C77.2678 35.8651 77.7257 35.6127 78.227 35.5186L92.1604 33.448C92.6667 33.3933 93.1772 33.5022 93.6171 33.7587C94.0569 34.0153 94.4031 34.406 94.6047 34.8736L97.8446 43.218C97.8973 43.3532 97.9322 43.4947 97.9484 43.6389L99.7983 43.3639L99.6019 42.0429L102.908 41.5516L102.732 40.3658L105.284 39.9866L104.266 33.1373L101.714 33.5165L100.343 24.2909L96.8178 21.9059L73.6253 22.2354L62.3562 12.7596L49.6266 14.6514L51.4654 16.6834L50.0751 20.934L51.0306 27.3634L54.6396 27.838L53.5234 30.5313L55.1541 31.3L51.8391 32.8036L55.4481 33.2783L53.3427 36.1186L55.8156 35.7511L54.6259 37.9499L56.4036 39.7076L55.6548 44.8738L60.4735 46.6852L59.6113 47.9861ZM96.9723 24.2774C96.7973 24.197 96.6024 24.1705 96.4123 24.2011C96.1604 24.2424 95.9347 24.381 95.784 24.587C95.6332 24.793 95.5694 25.05 95.6064 25.3026C95.6347 25.4931 95.719 25.6709 95.8486 25.8133C95.9782 25.9557 96.1472 26.0564 96.3342 26.1026C96.5211 26.1487 96.7176 26.1383 96.8985 26.0725C97.0795 26.0067 97.2369 25.8886 97.3506 25.7332C97.4643 25.5778 97.5292 25.3921 97.5371 25.1997C97.545 25.0073 97.4956 24.8169 97.395 24.6527C97.2944 24.4884 97.1473 24.3578 96.9723 24.2774ZM80.1564 24.241C79.9814 24.1606 79.7865 24.134 79.5964 24.1647L79.5845 24.1665C79.4601 24.1865 79.341 24.2309 79.2337 24.297C79.1265 24.3631 79.0334 24.4497 78.9597 24.5519C78.886 24.654 78.8331 24.7696 78.804 24.8922C78.775 25.0147 78.7704 25.1418 78.7905 25.2662C78.8188 25.4567 78.9031 25.6344 79.0327 25.7768C79.1623 25.9193 79.3313 26.02 79.5182 26.0661C79.7052 26.1123 79.9016 26.1018 80.0826 26.036C80.2636 25.9703 80.4209 25.8522 80.5347 25.6968C80.6484 25.5413 80.7133 25.3556 80.7212 25.1632C80.7291 24.9708 80.6796 24.7804 80.579 24.6162C80.4785 24.452 80.3314 24.3214 80.1564 24.241ZM75.6595 24.2548C75.4845 24.1744 75.2895 24.1479 75.0994 24.1785L75.0781 24.1817C74.829 24.2244 74.6068 24.3638 74.4599 24.5695C74.313 24.7751 74.2532 25.0305 74.2935 25.28C74.3218 25.4705 74.4062 25.6482 74.5357 25.7907C74.6653 25.9331 74.8344 26.0338 75.0213 26.0799C75.2083 26.1261 75.4047 26.1156 75.5857 26.0499C75.7667 25.9841 75.924 25.866 76.0377 25.7106C76.1514 25.5552 76.2164 25.3695 76.2243 25.1771C76.2322 24.9847 76.1827 24.7942 76.0821 24.63C75.9816 24.4658 75.8344 24.3352 75.6595 24.2548ZM64.2447 43.0559C64.4197 43.1363 64.6146 43.1629 64.8047 43.1322C64.9303 43.1136 65.051 43.0702 65.1596 43.0045C65.2683 42.9389 65.3629 42.8523 65.4378 42.7499C65.5128 42.6474 65.5667 42.5311 65.5964 42.4076C65.626 42.2842 65.6309 42.1561 65.6106 42.0307C65.5823 41.8403 65.498 41.6625 65.3684 41.5201C65.2388 41.3776 65.0698 41.277 64.8829 41.2308C64.6959 41.1847 64.4995 41.1951 64.3185 41.2609C64.1375 41.3267 63.9802 41.4448 63.8664 41.6002C63.7527 41.7556 63.6878 41.9413 63.6799 42.1337C63.672 42.3261 63.7215 42.5165 63.822 42.6807C63.9226 42.8449 64.0697 42.9755 64.2447 43.0559ZM71.6892 41.9437C71.8629 42.0257 72.0569 42.0545 72.2469 42.0262L72.2493 42.0259C72.5035 41.9874 72.7321 41.8498 72.885 41.643C73.0379 41.4362 73.1025 41.1773 73.0647 40.923C73.0365 40.733 72.9525 40.5557 72.8235 40.4134C72.6945 40.2711 72.5262 40.1703 72.3399 40.1237C72.1536 40.0771 71.9576 40.0868 71.7768 40.1515C71.596 40.2163 71.4384 40.3332 71.3241 40.4875C71.2097 40.6418 71.1436 40.8265 71.1343 41.0183C71.1249 41.2102 71.1726 41.4005 71.2714 41.5652C71.3702 41.7299 71.5156 41.8616 71.6892 41.9437ZM51.6053 18.5146L53.3529 25.5438L71.3939 22.8627L64.0232 16.6691L51.6053 18.5146Z" fill="#aaa"/>
<path d="M43.9335 43.8299L48.6605 42.5407L56.3957 51.9948L53.8173 43.4002L59.8336 41.6812L54.2471 39.5326L52.5281 31.7974L51.2389 36.5245L42.6443 32.2271L47.3713 36.9542L38.7767 38.6731L44.3632 39.9623L43.9335 43.8299Z" fill="#EC1F1F"/>
</svg>
