<svg width="115" height="64" viewBox="0 0 115 64" fill="none" xmlns="http://www.w3.org/2000/svg">
<g clip-path="url(#clip0_61_7409)">
<path d="M66.9477 35.8019L49.4447 40.4918C48.5547 40.7648 47.6045 40.7725 46.7101 40.5141C45.8158 40.2556 45.0162 39.7422 44.409 39.0366L40.525 34.0293L71.4411 25.7453L70.5917 32.0209C70.4184 32.9375 69.9813 33.7836 69.3339 34.4552C68.6866 35.1269 67.8573 35.5949 66.9477 35.8019Z" fill="#aaa"/>
<path d="M65.9424 36.0711L50.4445 40.2238C49.9628 40.3529 49.6769 40.848 49.806 41.3297L49.8872 41.6329C50.0163 42.1146 50.5114 42.4005 50.9931 42.2714L66.4911 38.1187C66.9728 37.9896 67.2587 37.4945 67.1296 37.0128L67.0484 36.7096C66.9193 36.2279 66.4241 35.942 65.9424 36.0711Z" fill="#aaa"/>
<path d="M65.3849 38.4151L52.0995 41.9749C51.6853 42.0859 51.4395 42.5116 51.5505 42.9258L51.6189 43.1811C51.7299 43.5952 52.1556 43.841 52.5697 43.73L65.8552 40.1702C66.2694 40.0592 66.5151 39.6335 66.4042 39.2194L66.3358 38.9641C66.2248 38.5499 65.7991 38.3041 65.3849 38.4151Z" fill="#aaa"/>
<path d="M41.5215 35.4723L51.9085 32.6892L42.0897 36.2948L41.5215 35.4723Z" fill="white"/>
<path d="M49.2373 40.5472L59.3636 37.8339L49.6679 40.8993L49.2373 40.5472Z" fill="white"/>
<path d="M50.9878 42.2728L58.0773 40.3732L51.3295 42.6544L50.9878 42.2728Z" fill="white"/>
<path d="M18.6016 36.6031L27.1111 34.323L27.7994 36.8918L19.2899 39.1719C18.9485 39.2634 18.5848 39.2155 18.2788 39.0388C17.9727 38.8621 17.7494 38.5711 17.658 38.2297C17.5681 37.8889 17.617 37.5264 17.7939 37.2215C17.9707 36.9167 18.2611 36.6943 18.6016 36.6031Z" fill="#aaa"/>
<path d="M18.4069 34.2385L22.1298 33.2409C22.2398 33.2114 22.357 33.2269 22.4557 33.2838C22.5543 33.3408 22.6263 33.4346 22.6558 33.5446L23.0334 34.954L18.4862 36.1724L18.1114 34.7737C18.0952 34.7191 18.0901 34.6619 18.0963 34.6054C18.1024 34.5488 18.1197 34.4941 18.1472 34.4443C18.1747 34.3945 18.2118 34.3507 18.2564 34.3153C18.301 34.28 18.3521 34.2539 18.4069 34.2385Z" fill="#aaa"/>
<path d="M21.0312 31.0556L23.3889 28.537C23.4582 28.4673 23.5467 28.4198 23.6431 28.4005L38.474 25.5667C38.4963 25.5607 38.5198 25.5609 38.5419 25.5672C38.5641 25.5736 38.5841 25.5859 38.5998 25.6029C38.6155 25.6198 38.6263 25.6407 38.6309 25.6633C38.6356 25.6858 38.634 25.7093 38.6264 25.731L38.4598 26.1519C38.4359 26.2085 38.4006 26.2597 38.356 26.302C38.3115 26.3444 38.2586 26.377 38.2008 26.398L23.4329 31.7858C23.3751 31.8157 23.3117 31.8327 23.2467 31.8357L21.2916 31.687C21.2183 31.6872 21.1467 31.6656 21.0857 31.6249C21.0248 31.5843 20.9773 31.5264 20.9494 31.4587C20.9215 31.391 20.9143 31.3165 20.9289 31.2447C20.9435 31.1729 20.9791 31.1071 21.0312 31.0556Z" fill="#aaa"/>
<path d="M18.5794 31.7125L15.2729 30.7117C15.1801 30.6849 15.0812 30.6875 14.9899 30.7191L0.762694 35.6999C0.740403 35.7058 0.720159 35.7177 0.704149 35.7343C0.688139 35.751 0.676971 35.7716 0.67185 35.7941C0.66673 35.8166 0.66785 35.8401 0.675093 35.862C0.682336 35.8839 0.695424 35.9034 0.712946 35.9184L1.06229 36.201C1.11129 36.2381 1.16744 36.2647 1.22721 36.2791C1.28698 36.2935 1.34908 36.2954 1.40961 36.2847L16.8912 33.5387C16.9543 33.536 17.016 33.5195 17.072 33.4902L18.6855 32.3852C18.7475 32.3471 18.7969 32.2914 18.8273 32.2253C18.8578 32.1591 18.868 32.0854 18.8566 32.0135C18.8453 31.9416 18.8129 31.8746 18.7635 31.8211C18.7142 31.7675 18.6501 31.7297 18.5794 31.7125Z" fill="#aaa"/>
<path d="M20.6575 30.9162L19.9134 30.5855C19.7577 30.5161 19.583 30.5024 19.4184 30.5465C19.2538 30.5906 19.1093 30.6899 19.0092 30.8278L18.5302 31.4863C18.4658 31.5763 18.422 31.6793 18.4019 31.7882C18.3818 31.897 18.3859 32.0089 18.4139 32.116L18.8713 33.8232L21.5305 33.1106L21.0731 31.4034C21.0449 31.2962 20.9929 31.1967 20.9209 31.1124C20.849 31.0281 20.7589 30.961 20.6575 30.9162Z" fill="#aaa"/>
<path d="M34.085 37.7785L38.7918 36.5173L39.0213 37.3736C39.0591 37.5146 39.0393 37.6649 38.9663 37.7914C38.8932 37.9178 38.773 38.0101 38.6319 38.0479L34.9622 39.0312C34.8211 39.069 34.6709 39.0492 34.5444 38.9762C34.4179 38.9032 34.3256 38.7829 34.2878 38.6419L34.0584 37.7856L34.085 37.7785Z" fill="#aaa"/>
<path d="M92.4026 19.5815L83.8931 21.8616L83.2048 19.2928L91.7143 17.0127C92.0556 16.9212 92.4193 16.9691 92.7254 17.1458C93.0314 17.3225 93.2547 17.6135 93.3462 17.9549C93.436 18.2957 93.3871 18.6582 93.2103 18.9631C93.0334 19.2679 92.743 19.4903 92.4026 19.5815Z" fill="#aaa"/>
<path d="M91.6016 16.5925L87.0437 17.8137L86.6661 16.4044C86.6366 16.2943 86.652 16.1771 86.709 16.0785C86.7659 15.9798 86.8597 15.9078 86.9698 15.8784L90.6927 14.8808C90.8027 14.8513 90.9199 14.8668 91.0186 14.9237C91.1172 14.9807 91.1892 15.0745 91.2187 15.1845L91.5963 16.5939L91.6016 16.5925Z" fill="#aaa"/>
<path d="M78.7393 27.2841L75.0696 28.2674C74.9285 28.3052 74.7782 28.2854 74.6518 28.2124C74.5253 28.1393 74.433 28.0191 74.3952 27.878L74.1658 27.0218L78.8726 25.7606L79.102 26.6168C79.1388 26.7534 79.1216 26.8988 79.0541 27.023C78.9866 27.1472 78.8739 27.2407 78.7393 27.2841Z" fill="#aaa"/>
<path d="M75.3682 28.2556L80.2913 30.4917C81.186 30.901 81.9354 31.5722 82.4406 32.4165L86.281 38.7089C86.3647 38.8475 86.4799 38.9645 86.6171 39.0506C86.7543 39.1366 86.9098 39.1892 87.071 39.2042C87.2323 39.2193 87.3948 39.1962 87.5455 39.137C87.6963 39.0778 87.831 38.984 87.9389 38.8632L88.3062 38.4531C88.4523 38.2813 88.5387 38.0667 88.5523 37.8417C88.5659 37.6166 88.5061 37.3932 88.3817 37.205L83.6166 29.9809C83.1591 29.2978 82.5371 28.7407 81.8078 28.361L77.3628 26.0285L75.3682 28.2556Z" fill="#aaa"/>
<path d="M59.5208 32.2512L54.4629 33.6064C53.758 33.7953 53.3396 34.5199 53.5285 35.2249L54.888 40.2986C55.0769 41.0036 55.8015 41.4219 56.5065 41.2331L61.5643 39.8778C62.2693 39.6889 62.6876 38.9643 62.4987 38.2594L61.1392 33.1856C60.9503 32.4806 60.2257 32.0623 59.5208 32.2512Z" fill="#aaa"/>
<path d="M59.3705 31.9037L54.0521 33.3288C53.8763 33.3759 53.7116 33.4572 53.5674 33.5681C53.4231 33.6791 53.3022 33.8174 53.2116 33.9751C53.1209 34.1329 53.0623 34.307 53.0391 34.4874C53.0158 34.6679 53.0285 34.8512 53.0763 35.0268L54.5014 40.3452C54.5478 40.5211 54.6284 40.6862 54.7388 40.8309C54.8491 40.9756 54.9869 41.097 55.1443 41.1883C55.3017 41.2796 55.4756 41.3389 55.656 41.3628C55.8363 41.3868 56.0197 41.3748 56.1954 41.3277L56.5092 41.2437C56.1707 41.3344 55.81 41.2869 55.5065 41.1117C55.2029 40.9364 54.9815 40.6478 54.8908 40.3093L53.5284 35.2248C53.4827 35.0572 53.4707 34.8822 53.493 34.7099C53.5153 34.5376 53.5715 34.3714 53.6584 34.2209C53.7453 34.0705 53.8611 33.9387 53.9991 33.8332C54.1372 33.7277 54.2948 33.6506 54.4628 33.6064L59.5206 32.2511C59.6883 32.2055 59.8633 32.1934 60.0356 32.2158C60.2079 32.2381 60.3741 32.2943 60.5245 32.3812C60.675 32.468 60.8068 32.5838 60.9122 32.7219C61.0177 32.86 61.0948 33.0175 61.1391 33.1856L61.0593 32.8877C61.013 32.7122 60.9326 32.5476 60.8227 32.4031C60.7128 32.2587 60.5755 32.1373 60.4187 32.046C60.2619 31.9546 60.0886 31.895 59.9088 31.8706C59.7289 31.8462 59.546 31.8575 59.3705 31.9037Z" fill="white"/>
<path d="M55.8418 39.9861L54.4114 34.6691L59.727 33.2334L61.1574 38.5504L61.1549 38.5625L55.8418 39.9861Z" fill="#aaa"/>
<path d="M61.5586 38.7507L61.2289 38.8391L59.7269 33.2335L60.2362 33.8152L61.5586 38.7507Z" fill="white"/>
<path d="M55.8416 39.9861L61.4845 38.4741L61.5586 38.7507L56.5805 40.0846L55.8416 39.9861Z" fill="white"/>
<path d="M58.2105 38.2114C59.0946 37.9745 59.6193 37.0658 59.3824 36.1816C59.1455 35.2975 58.2367 34.7728 57.3526 35.0097C56.4685 35.2466 55.9438 36.1554 56.1807 37.0395C56.4176 37.9237 57.3264 38.4483 58.2105 38.2114Z" fill="#aaa"/>
<path d="M56.5304 36.3872C56.83 36.3069 57.0078 35.9989 56.9275 35.6993C56.8472 35.3997 56.5393 35.2219 56.2397 35.3022C55.9401 35.3825 55.7623 35.6904 55.8426 35.9901C55.9228 36.2897 56.2308 36.4675 56.5304 36.3872Z" fill="#aaa"/>
<path d="M71.6421 23.4113L71.9966 22.0965L66.4141 22.4295L67.1354 24.4194L67.2386 22.9325L71.3815 22.609L71.6421 23.4113Z" fill="white"/>
<path d="M39.1838 32.1085L38.2194 31.1471L43.2205 28.6442L43.5855 30.7296L42.7527 29.4935L39.0084 31.2834L39.1838 32.1085Z" fill="white"/>
<path d="M38.1283 40.533L42.6927 43.4319C43.5247 43.9571 44.4965 44.2175 45.4796 44.1787L52.8479 43.9527C53.0097 43.947 53.1707 43.9794 53.3177 44.0472C53.4648 44.115 53.5939 44.2164 53.6946 44.3432C53.7954 44.47 53.865 44.6187 53.8978 44.7773C53.9307 44.9358 53.9259 45.0999 53.8838 45.2563L53.7427 45.7828C53.6833 46.0052 53.552 46.2017 53.3691 46.3414C53.1862 46.4812 52.9621 46.5563 52.732 46.5552L44.0865 46.4845C43.2643 46.4751 42.4578 46.259 41.741 45.8561L37.3573 43.4103L38.1283 40.533Z" fill="#aaa"/>
</g>
<path d="M91.1081 9.5864L88.7504 7.06786C88.6811 6.99816 88.5926 6.95065 88.4963 6.93136L73.6653 4.09747C73.643 4.09148 73.6195 4.09168 73.5974 4.09806C73.5752 4.10444 73.5552 4.11676 73.5395 4.13368C73.5238 4.1506 73.5131 4.17148 73.5084 4.19407C73.5037 4.21666 73.5053 4.2401 73.513 4.26186L73.6795 4.68271C73.7034 4.73936 73.7387 4.79047 73.7833 4.83282C73.8278 4.87517 73.8807 4.90785 73.9385 4.92881L88.7136 10.29C88.7713 10.3199 88.8348 10.3369 88.8997 10.3399L90.8492 10.2124C90.9212 10.2114 90.9914 10.1892 91.051 10.1487C91.1106 10.1082 91.157 10.0512 91.1845 9.98459C91.2121 9.91801 91.2195 9.84482 91.2059 9.77406C91.1924 9.70329 91.1583 9.63806 91.1081 9.5864Z" fill="#aaa"/>
<path d="M93.5599 10.2432L96.8663 9.24238C96.9591 9.21557 97.058 9.21817 97.1493 9.24981L111.41 14.2111C111.433 14.217 111.453 14.2289 111.469 14.2455C111.485 14.2622 111.496 14.2828 111.501 14.3053C111.506 14.3278 111.505 14.3513 111.498 14.3732C111.491 14.3951 111.478 14.4146 111.46 14.4296L111.111 14.7122C111.062 14.7494 111.006 14.7759 110.946 14.7903C110.886 14.8047 110.824 14.8066 110.763 14.7959L95.3013 12.0836C95.2382 12.0809 95.1764 12.0644 95.1204 12.0351L93.4959 10.95C93.421 10.9212 93.3575 10.8687 93.3151 10.8006C93.2727 10.7325 93.2537 10.6524 93.261 10.5725C93.2682 10.4925 93.3013 10.4171 93.3552 10.3577C93.4092 10.2983 93.481 10.2581 93.5599 10.2432Z" fill="#aaa"/>
<path d="M91.4818 9.44694L92.2206 9.11479C92.3762 9.04542 92.551 9.03163 92.7156 9.07574C92.8802 9.11984 93.0246 9.21915 93.1247 9.35705L93.6038 10.0155C93.6682 10.1056 93.712 10.2086 93.7321 10.3174C93.7522 10.4263 93.7481 10.5382 93.7201 10.6452L93.2627 12.3525L90.6035 11.6399L91.0609 9.9327C91.0899 9.82523 91.1428 9.72571 91.2157 9.64159C91.2885 9.55747 91.3795 9.49092 91.4818 9.44694Z" fill="#aaa"/>
<path fill-rule="evenodd" clip-rule="evenodd" d="M64 19.5C64 23.0899 61.0899 26 57.5 26C56.204 26 54.9966 25.6207 53.9827 24.9671C53.3487 25.6051 52.4705 26 51.5 26C49.5671 26 48 24.433 48 22.5C48 21.9373 48.1329 21.4055 48.3689 20.9344C47.5328 21.3072 46.7113 21.7163 45.9068 22.1613C44.9622 22.6845 44.1043 23.3509 43.3636 24.1367C40.5629 27.0981 37.0542 29.2977 33.1683 30.5281L27.0014 32.4883C26.8386 32.5895 26.6819 32.6823 26.5332 32.7703C25.5479 33.3536 24.9165 33.7273 25.2409 34.938L25.61 36.3155C25.8367 37.1618 26.3904 37.8834 27.1492 38.3215C27.908 38.7596 28.8098 38.8783 29.6561 38.6515L83.1702 24.3125C84.0166 24.0857 84.7381 23.532 85.1762 22.7732C85.6143 22.0144 85.733 21.1127 85.5063 20.2664L85.1372 18.8889C84.8116 17.6737 84.0674 17.6631 82.9206 17.6469C82.7524 17.6445 82.5756 17.642 82.3901 17.6355L76.0693 19.0214C72.0793 19.9071 67.9293 19.7595 64.0123 18.5925C63.9862 18.5847 63.9601 18.577 63.9339 18.5695C63.9775 18.8734 64 19.1841 64 19.5Z" fill="#aaa"/>
<path d="M65.1277 24.7984L64.7829 18.7742L78.0952 11.9768L67.1259 12.8021L66.5933 5.11427L62.5941 11.2619L52.8747 11.2813L58.2193 14.0822L50.8765 23.2776L57.7512 18.8456L57.628 29.6332L60.5959 23.2582L65.1277 24.7984Z" fill="#EC1F1F"/>
<defs>
<clipPath id="clip0_61_7409">
<rect width="110" height="31.1918" fill="white" transform="translate(0 33.4702) rotate(-15)"/>
</clipPath>
</defs>
</svg>
