<svg width="126" height="53" viewBox="0 0 126 53" fill="none" xmlns="http://www.w3.org/2000/svg">
<path d="M19.6692 27.2377L12 37.328L100.251 44.5035L98.8664 41.2066C98.2694 39.7887 97.3039 38.5563 96.0701 37.6372L92.0797 34.6446L80.0351 34.3511L80.0634 33.1377L90.404 33.3834L87.4362 31.1633L71.8055 30.7926L71.8355 29.5793L85.7617 29.9091L81.2358 26.5214L22.8295 25.6976C22.2188 25.6881 21.6144 25.8225 21.0653 26.0901C20.5163 26.3577 20.038 26.7508 19.6692 27.2377Z" fill="#aaa"/>
<path d="M12.0049 52.9664V52.1973H13.0303V52.9664H14.0558V52.1973H15.0813V52.9664H16.1067V52.1973H17.1322V52.9664H18.1577V52.1973H19.1832V52.9664H20.2086V52.1973H21.2341V52.9664H22.2596V52.1973H23.285V52.9664H24.3105V52.1973H25.336V52.9664H26.3615V52.1973H27.3869V52.9664H28.4124V52.1973H29.4379V52.9664H30.4634V52.1973H31.4888V52.9664H32.5143V52.1973H33.5398V52.9664H34.5652V52.1973H35.5907V52.9664H36.6162V52.1973H37.6417V52.9664H38.6671V52.1973H39.6926V52.9664H40.7181V52.1973H41.7435V52.9664H42.769V52.1973H43.7945V52.9664H44.82V52.1973H45.8454V52.9664H46.8709V52.1973H47.8964V52.9664H48.9218V52.1973H49.9473V52.9664H50.9728V52.1973H51.9983V52.9664H53.0237V52.1973H54.0492V52.9664H55.0747V52.1973H56.1001V52.9664H57.1256V52.1973H58.1511V52.9664H59.1766V52.1973H60.202V52.9664H61.2275V52.1973H62.253V52.9664H63.2785V52.1973H64.3039V52.9664H65.3294V52.1973H66.3549V52.9664H67.3803V52.1973H68.4058V52.9664H69.4313V52.1973H70.4568V52.9664H71.4822V52.1973H72.5077V52.9664H73.5332V52.1973H74.5586V52.9664H75.5841V52.1973H76.6096V52.9664H77.6351V52.1973H78.6605V52.9664H79.686V52.1973H80.7115V52.9664H81.3712C81.513 52.9664 81.6583 52.9664 81.8002 52.9493L81.7387 52.1819C82.0797 52.1535 82.4167 52.0882 82.7436 51.9871L82.9743 52.7203C83.3564 52.6004 83.7234 52.4369 84.0682 52.2332L83.6768 51.5683C83.972 51.3948 84.2467 51.1884 84.4955 50.9531L85.0253 51.5136C85.3157 51.2381 85.5743 50.9308 85.7961 50.5976L85.1569 50.1703L85.7192 49.3157L86.3601 49.7413L86.9275 48.8867L86.2866 48.4612L86.854 47.6066L87.495 48.0322L88.0624 47.1776L87.4215 46.752L87.9889 45.8975L88.6298 46.323L89.1973 45.4685L88.5563 45.0429L89.1238 44.1884L89.7647 44.6139L90.3321 43.7594L89.6929 43.3338L90.0347 42.8296C90.1127 42.7127 90.1824 42.5905 90.2432 42.4639L90.9371 42.7971C91.1231 42.4107 91.2433 41.996 91.2926 41.57L90.5286 41.4828C90.5684 41.1404 90.5499 40.7936 90.474 40.4573L91.226 40.2864C91.1487 39.945 91.0256 39.6156 90.8602 39.3071C90.8243 39.2387 90.785 39.1704 90.744 39.1054L90.0894 39.5088C89.909 39.2174 89.6815 38.9581 89.416 38.7414L89.9031 38.1449C89.5708 37.8734 89.1953 37.6597 88.7922 37.5125L88.5273 38.2372C88.2056 38.1197 87.8665 38.0567 87.524 38.0509L87.536 37.2818H86.4968V38.0509H85.4714V37.2818H84.4459V38.0509H83.4204V37.2818H82.395V38.0509H81.3695V37.2818H80.344V38.0509H79.3185V37.2818H78.2931V38.0509H77.2676V37.2818H76.2421V38.0509H75.2167V37.2818H74.1912V38.0509H73.1657V37.2818H72.1402V38.0509H71.1148V37.2818H70.0893V38.0509H69.0638V37.2818H68.0383V38.0509H67.0129V37.2818H65.9874V38.0509H64.9619V37.2818H63.9365V38.0509H62.911V37.2818H61.8855V38.0509H60.86V37.2818H59.8346V38.0509H58.8091V37.2818H57.7836V38.0509H56.7582V37.2818H55.7327V38.0509H54.7072V37.2818H53.6817V38.0509H52.6563V37.2818H51.6308V38.0509H50.6053V37.2818H49.5799V38.0509H48.5544V37.2818H47.5289V38.0509H46.5034V37.2818H45.478V38.0509H44.4525V37.2818H43.427V38.0509H42.4015V37.2818H41.3761V38.0509H40.3506V37.2818H39.3251V38.0509H38.2997V37.2818H37.2742V38.0509H36.2487V37.2818H35.2232V38.0509H34.1978V37.2818H33.1723V38.0509H32.1468V37.2818H31.1214V38.0509H30.0959V37.2818H29.0704V38.0509H28.0449V37.2818H27.0195V38.0509H25.994V37.2818H24.9685V38.0509H23.9431V37.2818H22.9176V38.0509H21.8921V37.2818H20.8666V38.0509H19.8412V37.2818H18.8157V38.0509H17.7902V37.2818H16.7648V38.0509H15.7393V37.2818H14.7138V38.0509H13.6883V37.2818H12.6629V38.0509H11.6374V37.2818H10.6119V38.0509H9.58645V37.2818H8.56098V38.0509H7.5355V37.2818H6.51003V38.0509H5.48456V37.2818H4.45909V38.0509H3.84893C3.70999 38.0511 3.57123 38.0608 3.43362 38.08L3.32936 37.3177C2.90492 37.3757 2.4931 37.5039 2.11076 37.6971L2.45258 38.3808C2.14683 38.5352 1.86945 38.7404 1.63221 38.9875L1.07845 38.4543C0.833718 38.7096 0.624986 38.9971 0.458043 39.3088C0.422151 39.3772 0.387964 39.4438 0.3572 39.5122L1.05623 39.8369C0.911569 40.1476 0.820275 40.4804 0.786191 40.8214L0.0205087 40.7445C0.00681391 40.8716 -3.16243e-05 40.9994 1.09824e-07 41.1273C0.000247409 41.4278 0.0358124 41.7273 0.105965 42.0195L0.85456 41.8486C0.934552 42.182 1.06972 42.4997 1.25449 42.7886L0.606736 43.2056L1.17929 44.0704L1.82021 43.6449L2.38764 44.4994L1.74672 44.925L2.31586 45.7795L2.95678 45.354L3.5242 46.2085L2.87986 46.6273L3.44729 47.4818L4.08821 47.0563L4.65564 47.9108L4.01472 48.3364L4.58215 49.191L5.22307 48.7654L5.7905 49.6199L5.14958 50.0455L5.5102 50.5873C5.59053 50.7104 5.68111 50.83 5.76657 50.9428L6.37159 50.466C6.58318 50.735 6.82457 50.9793 7.09114 51.194L6.60916 51.7939C6.92112 52.0451 7.26055 52.2602 7.62096 52.4349L7.96278 51.741C8.27069 51.8911 8.59466 52.0058 8.92844 52.0828L8.75753 52.8348C9.15004 52.9241 9.55137 52.9688 9.95391 52.9681H9.97271V52.199H10.9982V52.9681L12.0049 52.9664ZM83.5913 40.3668C84.0863 40.3664 84.5702 40.5129 84.9819 40.7876C85.3936 41.0624 85.7146 41.453 85.9042 41.9102C86.0939 42.3674 86.1437 42.8705 86.0473 43.356C85.951 43.8415 85.7128 44.2875 85.3629 44.6376C85.0131 44.9877 84.5672 45.2262 84.0818 45.3229C83.5964 45.4195 83.0932 45.3701 82.6359 45.1808C82.1786 44.9914 81.7877 44.6707 81.5127 44.2592C81.2377 43.8477 81.0909 43.3639 81.0909 42.8689C81.0909 42.2056 81.3543 41.5694 81.8232 41.1002C82.292 40.631 82.928 40.3672 83.5913 40.3668ZM74.533 40.3668C75.4741 40.3668 76.394 40.6458 77.1765 41.1687C77.959 41.6915 78.5689 42.4346 78.929 43.3041C79.2891 44.1735 79.3834 45.1302 79.1998 46.0532C79.0162 46.9762 78.563 47.8241 77.8976 48.4895C77.2321 49.1549 76.3843 49.6081 75.4613 49.7917C74.5383 49.9753 73.5816 49.8811 72.7121 49.521C71.8427 49.1608 71.0996 48.5509 70.5767 47.7685C70.0539 46.986 69.7748 46.066 69.7748 45.125C69.7748 43.8636 70.2757 42.6539 71.1673 41.7616C72.0588 40.8694 73.2682 40.3677 74.5296 40.3668H74.533ZM62.9947 40.3668C63.9358 40.3668 64.8558 40.6458 65.6382 41.1687C66.4207 41.6915 67.0306 42.4346 67.3907 43.3041C67.7509 44.1735 67.8451 45.1302 67.6615 46.0532C67.4779 46.9762 67.0247 47.8241 66.3593 48.4895C65.6938 49.1549 64.846 49.6081 63.923 49.7917C63 49.9753 62.0433 49.8811 61.1738 49.521C60.3044 49.1608 59.5613 48.5509 59.0384 47.7685C58.5156 46.986 58.2365 46.066 58.2365 45.125C58.237 43.8637 58.738 42.6543 59.6295 41.7621C60.521 40.87 61.7301 40.3681 62.9913 40.3668H62.9947ZM51.4548 40.3668C52.3958 40.3668 53.3158 40.6458 54.0983 41.1687C54.8808 41.6915 55.4906 42.4346 55.8507 43.3041C56.2109 44.1735 56.3051 45.1302 56.1215 46.0532C55.9379 46.9762 55.4848 47.8241 54.8193 48.4895C54.1539 49.1549 53.306 49.6081 52.383 49.7917C51.46 49.9753 50.5033 49.8811 49.6339 49.521C48.7644 49.1608 48.0213 48.5509 47.4985 47.7685C46.9756 46.986 46.6966 46.066 46.6966 45.125C46.6966 43.8636 47.1974 42.6539 48.089 41.7616C48.9806 40.8694 50.19 40.3677 51.4513 40.3668H51.4548ZM39.9165 40.3668C40.8576 40.3668 41.7775 40.6458 42.56 41.1687C43.3425 41.6915 43.9523 42.4346 44.3125 43.3041C44.6726 44.1735 44.7668 45.1302 44.5832 46.0532C44.3996 46.9762 43.9465 47.8241 43.281 48.4895C42.6156 49.1549 41.7678 49.6081 40.8448 49.7917C39.9218 49.9753 38.9651 49.8811 38.0956 49.521C37.2262 49.1608 36.483 48.5509 35.9602 47.7685C35.4374 46.986 35.1583 46.066 35.1583 45.125C35.1587 43.8637 35.6597 42.6543 36.5512 41.7621C37.4427 40.87 38.6519 40.3681 39.9131 40.3668H39.9165ZM33.1313 45.125C33.1313 46.066 32.8522 46.986 32.3294 47.7685C31.8065 48.5509 31.0634 49.1608 30.194 49.521C29.3245 49.8811 28.3678 49.9753 27.4448 49.7917C26.5218 49.6081 25.674 49.1549 25.0085 48.4895C24.3431 47.8241 23.8899 46.9762 23.7063 46.0532C23.5227 45.1302 23.617 44.1735 23.9771 43.3041C24.3372 42.4346 24.9471 41.6915 25.7296 41.1687C26.5121 40.6458 27.432 40.3668 28.3731 40.3668C28.998 40.3665 29.6168 40.4895 30.1942 40.7285C30.7716 40.9675 31.2963 41.318 31.7381 41.7599C32.18 42.2018 32.5305 42.7264 32.7695 43.3038C33.0086 43.8812 33.1315 44.5 33.1313 45.125ZM16.8348 40.3668C17.7759 40.3668 18.6959 40.6458 19.4783 41.1687C20.2608 41.6915 20.8707 42.4346 21.2308 43.3041C21.591 44.1735 21.6852 45.1302 21.5016 46.0532C21.318 46.9762 20.8648 47.8241 20.1994 48.4895C19.5339 49.1549 18.6861 49.6081 17.7631 49.7917C16.8401 49.9753 15.8834 49.8811 15.0139 49.521C14.1445 49.1608 13.4014 48.5509 12.8785 47.7685C12.3557 46.986 12.0766 46.066 12.0766 45.125C12.0771 43.8631 12.5785 42.6531 13.4708 41.7609C14.363 40.8687 15.573 40.3672 16.8348 40.3668ZM7.77649 45.3711C7.28162 45.3711 6.79785 45.2243 6.38637 44.9494C5.9749 44.6744 5.65418 44.2837 5.4648 43.8265C5.27542 43.3692 5.22587 42.8661 5.32242 42.3808C5.41897 41.8954 5.65727 41.4496 6.00721 41.0996C6.35714 40.7497 6.80298 40.5114 7.28835 40.4148C7.77372 40.3183 8.27682 40.3678 8.73403 40.5572C9.19123 40.7466 9.58201 41.0673 9.85695 41.4788C10.1319 41.8903 10.2786 42.374 10.2786 42.8689C10.2789 43.198 10.2141 43.5239 10.0881 43.8279C9.96216 44.1319 9.7774 44.4081 9.54447 44.6405C9.31154 44.873 9.03501 45.0572 8.73074 45.1825C8.42647 45.3079 8.10044 45.372 7.77136 45.3711H7.77649Z" fill="#aaa"/>
<path fill-rule="evenodd" clip-rule="evenodd" d="M56.1485 0.867666L55.1072 12.4652L58.5396 12.5177L59.144 9.83842C59.2262 9.47691 59.4291 9.15422 59.7194 8.92355C60.0096 8.69287 60.3698 8.568 60.7405 8.56951L67.895 8.60269C68.2133 8.60398 68.5243 8.69865 68.7894 8.87496C69.0545 9.05127 69.2621 9.30148 69.3863 9.59459L70.713 12.727L74.2065 12.7867C74.5263 12.7921 74.837 12.894 75.0979 13.0791C75.3587 13.2642 75.5575 13.5239 75.6681 13.824L76.7712 16.8282L83.9207 17.4701L83.9299 18.552L104.775 18.3756L125.687 32.5835L123.716 34.8312L104.795 20.8021L83.9489 20.9784L83.9582 22.0603L78.8873 22.5969L80.0881 25.8501L44.2159 25.2685L47.4618 13.524C47.5556 13.1846 47.7596 12.8861 48.0416 12.6754C48.3237 12.4646 48.6677 12.3536 49.0197 12.3597L50.6491 12.3876L51.317 4.94866L52.7265 5.07521L52.0678 12.412L53.6885 12.4408L54.739 0.741115L56.1485 0.867666ZM59 15.5L57 16.5L58 18L54.5 19L55.5 20.5L52.5 22H57L58.5 19.5H62L60 17L64 15.5L61 13L59 15.5Z" fill="#aaa"/>
<path d="M39.8847 28.1626L44.1165 23.8613L58.0933 29.1593L50.1148 21.5862L55.4531 16.0285L48.2124 17.1942L41.6704 10.0061L43.1846 15.847L31.4403 16.5824L39.341 18.6994L31.2656 25.8531L37.9822 23.7705L39.8847 28.1626Z" fill="#EC1F1F"/>
</svg>
