<svg width="109" height="59" viewBox="0 0 109 59" fill="none" xmlns="http://www.w3.org/2000/svg">
<g clip-path="url(#clip0_397_413)">
<path d="M25.6777 16.1236L28.7906 11.3883L28.9108 11.2066L23.788 0L13.7651 10.7233L14.4515 11.7712L19.0377 10.5601L23.8979 9.76723L23.1766 13.2284L25.6777 16.1236Z" fill="#aaa"/>
<path fill-rule="evenodd" clip-rule="evenodd" d="M91.1491 46.1977C94.419 47.9838 109.629 56.404 109.141 58.2252C108.594 60.2665 88.8041 56.4157 88.8041 56.4157L86.5481 55.8469L86.0679 57.6391L67.8436 52.7559L67.6506 51.7725L27.9718 32.712L25.9747 27.4563L25.1437 27.5442L25.6727 30.5074L26.7295 33.2859L27.0232 33.6038L66.4883 52.5636L66.5931 53.0994L66.8138 54.2347L57.8504 52.0348C57.8407 52.1145 57.8258 52.1935 57.8057 52.2713C57.6756 52.7507 57.3611 53.1592 56.9309 53.4075C56.5007 53.6559 55.9897 53.724 55.5094 53.597L42.0111 49.9801C41.5541 49.8562 41.1608 49.5643 40.9099 49.1628C40.659 48.7612 40.5691 48.2798 40.658 47.8147L37.6202 47.0691L33.0822 42.1807L6.29916 32.4514L6.82362 30.4941L0.95458 28.9215L1.91888 25.3227L14.0013 30.7528L13.6583 29.3844L0.046972 23.2683L0 23.143L3.8594 22.4997H7.3594L10.8594 19.9997V17.4997L13.3594 17.4997L14.8594 15.4997L16.3594 17.4997L18.2129 15.4402L21.7473 23.5876L24.315 23.9898C24.315 23.9898 36.792 28.347 40.7574 29.9251C42.3702 30.5673 46.7789 31.6843 51.722 32.9366C55.9104 33.9977 60.4824 35.1561 64.0622 36.2052L65.8594 39.5L68.8594 40.5L70.3594 42H71.8594L78.8594 43.5L85.3594 47L88.8594 46H91.0515C91.0853 46.0662 91.1178 46.1322 91.1491 46.1977Z" fill="#aaa"/>
<path d="M90.1843 30.9507C89.1695 30.3804 87.9483 29.8871 86.7799 29.515C83.2719 28.396 79.5208 28.0268 76.4868 28.5028C71.441 29.2931 66.3066 32.4446 64.3539 35.0718L65.6856 35.0942C66.25 34.4852 67.0296 33.8016 68.0255 33.1039C70.0881 31.6684 72.3809 30.5961 74.8049 29.9333C75.4119 29.7693 76.0273 29.6381 76.6484 29.5403C79.5274 29.0887 83.104 29.4441 86.4609 30.5151C87.2058 30.7463 87.9351 31.0246 88.6442 31.3483L90.1843 30.9507Z" fill="#aaa"/>
<path d="M30.8594 13L28.8594 16.5L18.8594 15.5L25.3594 19L22.8594 23.5L27.3594 21.5L32.8594 25L30.8594 21.5L38.3594 19H32.8594L36.8594 13L32.8594 15.5L30.8594 13Z" fill="#EC1F1F"/>
</g>
<defs>
<clipPath id="clip0_397_413">
<rect width="109" height="59" fill="white"/>
</clipPath>
</defs>
</svg>
