<svg width="117" height="75" viewBox="0 0 117 75" fill="none" xmlns="http://www.w3.org/2000/svg">
<path fill-rule="evenodd" clip-rule="evenodd" d="M69.4869 43.8088L67.0826 44.3356C67.0828 44.0851 67.0304 43.8373 66.9289 43.6083C66.8274 43.3793 66.6791 43.1741 66.4934 43.006C66.3077 42.8379 66.0888 42.7105 65.8509 42.6322C65.613 42.5539 65.3613 42.5263 65.112 42.5512L59.0044 43.1564L58.1879 42.1478C57.7454 41.6001 57.1734 41.1714 56.5235 40.9004C55.8736 40.6295 55.1664 40.5249 54.4659 40.5962L47.0821 41.3487L42.7569 41.8006L22.3258 43.8817C21.6257 43.9519 20.9541 44.1957 20.372 44.5909C19.7898 44.9862 19.3154 45.5204 18.9918 46.1452L18.4565 47.1751L12.8105 47.7337V62.4625H11.8407C10.9349 62.4625 10.9349 65.7597 11.8407 65.7597H15.9525V66.7082H17.5042V65.9323C17.5042 63.2518 18.569 60.6811 20.4644 58.7857C22.3598 56.8902 24.9306 55.8254 27.6111 55.8254C30.2916 55.8254 32.8623 56.8902 34.7578 58.7857C36.6532 60.6811 37.718 63.2518 37.718 65.9323V66.7082H39.2696V65.7597H39.7759V66.7082H41.3275V65.9323C41.3275 63.2518 42.3923 60.6811 44.2877 58.7857C46.1832 56.8902 48.7539 55.8254 51.4344 55.8254C54.115 55.8254 56.6857 56.8902 58.5811 58.7857C60.4765 60.6811 61.5414 63.2518 61.5414 65.9323V66.7082H63.093V65.7597L66.748 65.7597L67 64.4998V62.4998L67.5 60.4998L68.5 59.9998V56.9998H67V54.9998L68.5 53.9998V51.9998H67L66.5 50.4998H68.5L70 48.9998H68.5L70.5 46.4998L69 45.9998L69.4869 43.8088ZM41.1646 49.0875C41.1642 48.8096 41.2463 48.5378 41.4004 48.3066C41.5546 48.0754 41.7739 47.8951 42.0305 47.7885C42.2872 47.682 42.5697 47.6541 42.8423 47.7082C43.1148 47.7623 43.3652 47.8961 43.5617 48.0926C43.7582 48.2891 43.892 48.5395 43.9461 48.812C44.0003 49.0846 43.9723 49.3671 43.8658 49.6238C43.7592 49.8804 43.579 50.0997 43.3477 50.2539C43.1165 50.408 42.8448 50.4901 42.5669 50.4897C42.195 50.4897 41.8383 50.342 41.5753 50.079C41.3123 49.816 41.1646 49.4594 41.1646 49.0875ZM37.4213 45.2937L36.4651 43.4162L42.4427 42.8072L41.8027 44.8631L37.4213 45.2937ZM37.974 49.0875C37.9744 49.3653 37.8924 49.637 37.7383 49.8681C37.5843 50.0993 37.3651 50.2796 37.1085 50.3862C36.852 50.4928 36.5696 50.5208 36.297 50.4669C36.0245 50.4129 35.7741 50.2793 35.5776 50.083C35.381 49.8867 35.247 49.6365 35.1927 49.3641C35.1384 49.0916 35.1661 48.8092 35.2723 48.5525C35.3785 48.2958 35.5585 48.0763 35.7895 47.922C36.0204 47.7676 36.292 47.6852 36.5698 47.6852C36.7541 47.6849 36.9367 47.721 37.107 47.7914C37.2774 47.8617 37.4322 47.965 37.5626 48.0952C37.6931 48.2254 37.7965 48.3801 37.8671 48.5504C37.9377 48.7206 37.974 48.9031 37.974 49.0875ZM54.5629 41.5659C55.1029 41.51 55.6484 41.5897 56.1499 41.7976C56.6515 42.0055 57.0933 42.3352 57.4354 42.7568L57.8485 43.263L46.124 44.4267L46.7679 42.3592L54.5629 41.5659ZM19.8568 46.5932C20.1062 46.1111 20.472 45.6988 20.9212 45.394C21.3703 45.0891 21.8885 44.9013 22.4286 44.8476L32.2 43.8507L33.1504 45.7185L19.6124 47.0606L19.8568 46.5932Z" fill="#aaa"/>
<path fill-rule="evenodd" clip-rule="evenodd" d="M74.5539 48.2995L73.3256 43.7152C73.1744 43.145 73.2552 42.5382 73.5504 42.0274C73.8455 41.5167 74.331 41.1437 74.9005 40.9901L96.5781 35.1816C97.7602 34.8648 99.3999 35.3411 100.243 36.2378L109.018 45.7033C109.964 46.8092 110.675 48.0965 111.107 49.4865L113.283 57.6061L114.347 57.3209C115.222 57.0865 116.076 60.2714 115.201 60.5058L109.179 62.1192L109.425 63.0353L107.926 63.4369L107.725 62.6875C107.031 60.0983 105.338 57.8908 103.016 56.5505C100.695 55.2103 97.9361 54.8471 95.3469 55.5408C92.7577 56.2346 90.5501 57.9285 89.2099 60.2499C87.8696 62.5713 87.5064 65.3301 88.2002 67.9193L88.401 68.6686L86.9022 69.0702L86.6568 68.1541L75.0406 71.2666L74.2073 69.6679L76.941 66.3472L75.1986 63.7083L75.7763 62.0006L74.9999 59.1028L77.4147 58.4558L74.4822 57.171L73.7058 54.2732L73.8953 51.1166L71.315 49.1634L72.228 48.9187L70.2753 41.631L66.9254 39.6954L67.5439 38.6241L71.3446 40.8184L73.4299 48.6007L74.5539 48.2995ZM76.0199 45.1679L86.6273 42.3256L88.8361 50.5688L78.2287 53.411L76.0199 45.1679ZM96.7132 52.1046L91.8422 53.4097L91.535 52.2632L96.406 50.958L96.7132 52.1046ZM106.138 45.9188L89.9754 50.2495L87.7666 42.0063L99.5693 38.8438L106.138 45.9188Z" fill="#aaa"/>
<path d="M35.2361 66.5258V65.2729H34.5185C34.5194 65.2587 34.5194 65.2444 34.5185 65.2302C34.4971 65.0033 34.4661 64.7783 34.4254 64.5572L35.1197 64.3632L34.7958 63.153L34.0956 63.3469C34.0122 63.12 33.9211 62.8989 33.8164 62.6817L34.4448 62.319L33.8183 61.2328L33.1841 61.5994C33.0483 61.4054 32.9009 61.2115 32.7457 61.0311L33.2655 60.5113L32.3792 59.625L31.8574 60.1467C31.6751 59.9935 31.485 59.848 31.2891 59.7103L31.6576 59.0722L30.5715 58.4457L30.2011 59.0877C29.9857 58.9846 29.7649 58.8933 29.5397 58.8142L29.7336 58.0966L28.5234 57.7727L28.3294 58.4923C28.0945 58.4493 27.8576 58.4182 27.6195 58.3992V57.6641H26.3666V58.4089C26.1286 58.4279 25.8916 58.459 25.6567 58.502L25.4628 57.7824L24.2525 58.1063L24.4464 58.8239C24.2215 58.9054 24.0004 58.9966 23.7851 59.0974L23.4146 58.4399L22.3285 59.0664L22.6989 59.7064C22.505 59.8422 22.311 59.9877 22.1287 60.1409L21.607 59.6191L20.7206 60.5055L21.2423 61.0253C21.0872 61.2076 20.9398 61.3977 20.8021 61.5936L20.1678 61.227L19.5414 62.3132L20.1717 62.6759C20.0689 62.8931 19.9777 63.1142 19.8943 63.3411L19.1942 63.1472L18.8683 64.3574L19.5646 64.5514C19.5239 64.7725 19.4929 64.9975 19.4715 65.2244C19.4715 65.238 19.4715 65.2535 19.4715 65.2671H18.7539V66.52H19.4657C19.4851 66.7625 19.5161 67.003 19.5569 67.2376L18.8722 67.4316L19.1981 68.6419L19.875 68.4595C19.9564 68.6904 20.0495 68.9134 20.1504 69.1326L19.5452 69.4817L20.1717 70.5678L20.7749 70.2187C20.9126 70.4127 21.06 70.6066 21.2171 70.8006L20.7245 71.2913L21.6108 72.1776L22.0996 71.6889C22.2936 71.846 22.4778 71.9953 22.6815 72.133L22.3362 72.7304L23.4224 73.3569L23.7637 72.775C23.9829 72.8778 24.2079 72.969 24.4387 73.0563L24.2622 73.7157L25.4725 74.0396L25.649 73.3782C25.8875 73.4209 26.13 73.4539 26.3743 73.4733V74.1502H27.6273V73.4655C27.8706 73.4467 28.1127 73.415 28.3527 73.3705L28.5292 74.0318L29.7394 73.7079L29.5629 73.0485C29.7938 72.9651 30.0187 72.8701 30.2379 72.7673L30.5793 73.3491L31.6654 72.7227L31.3221 72.1292C31.5161 71.9895 31.71 71.8402 31.904 71.6831L32.3927 72.1718L33.2791 71.2855L32.7884 70.7948C32.9436 70.6008 33.091 70.4068 33.2287 70.2129L33.8319 70.562L34.4583 69.4759L33.8532 69.1267C33.956 68.9076 34.0472 68.6845 34.1286 68.4537L34.8075 68.6361L35.1314 67.4258L34.4467 67.2318C34.4874 66.9971 34.5185 66.7566 34.5379 66.5142L35.2361 66.5258ZM26.995 70.8355C25.6942 70.8345 24.447 70.3174 23.527 69.3978C22.6071 68.4782 22.0895 67.2312 22.088 65.9304C22.088 65.7869 22.088 65.6375 22.1112 65.4746C22.2226 64.2566 22.7852 63.1241 23.6886 62.2996C24.592 61.475 25.7709 61.0179 26.994 61.0179C28.2171 61.0179 29.3961 61.475 30.2995 62.2996C31.2029 63.1241 31.7655 64.2566 31.8768 65.4746C31.8923 65.6356 31.8982 65.7849 31.8982 65.9323C31.8966 67.2323 31.3795 68.4785 30.4603 69.3977C29.5412 70.3169 28.2949 70.8339 26.995 70.8355Z" fill="#aaa"/>
<path d="M29.2489 65.9304C29.2489 65.8644 29.245 65.7927 29.2373 65.7151C29.1852 65.1559 28.9263 64.6363 28.5112 64.2581C28.0962 63.8798 27.5548 63.6702 26.9932 63.6702C26.4317 63.6702 25.8903 63.8798 25.4752 64.2581C25.0601 64.6363 24.8012 65.1559 24.7492 65.7151C24.7492 65.7965 24.7375 65.8644 24.7375 65.9265C24.7375 66.2227 24.7959 66.516 24.9093 66.7897C25.0226 67.0634 25.1888 67.312 25.3982 67.5215C25.6077 67.731 25.8564 67.8971 26.13 68.0105C26.4037 68.1238 26.697 68.1822 26.9932 68.1822C27.2895 68.1822 27.5828 68.1238 27.8564 68.0105C28.1301 67.8971 28.3788 67.731 28.5882 67.5215C28.7977 67.312 28.9639 67.0634 29.0772 66.7897C29.1906 66.516 29.2489 66.2227 29.2489 65.9265V65.9304Z" fill="#aaa"/>
<path d="M59.0576 66.5258V65.2729H58.34C58.34 65.2593 58.34 65.2438 58.34 65.2302C58.3186 65.0033 58.2876 64.7783 58.2469 64.5572L58.9412 64.3632L58.6173 63.153L57.9172 63.3469C57.8338 63.12 57.7407 62.8989 57.6379 62.6817L58.2682 62.319L57.6417 61.2328L57.0075 61.5994C56.8698 61.4054 56.7243 61.2115 56.5692 61.0311L57.089 60.5113L56.2026 59.625L55.6809 60.1467C55.4986 59.9941 55.3085 59.8486 55.1106 59.7103L55.4811 59.0722L54.395 58.4457L54.0148 59.0896C53.7993 58.9869 53.5785 58.8956 53.3534 58.8162L53.5474 58.0985L52.3371 57.7746L52.1432 58.4942C51.9082 58.4513 51.6713 58.4202 51.4333 58.4011V57.6641H50.1803V58.4089C49.9423 58.4279 49.7054 58.459 49.4705 58.502L49.2765 57.7824L48.0662 58.1063L48.2602 58.8239C48.0352 58.9054 47.8141 58.9966 47.5988 59.0974L47.2264 58.4399L46.1403 59.0664L46.5107 59.7064C46.3168 59.8422 46.1228 59.9877 45.9405 60.1409L45.4188 59.6191L44.5324 60.5055L45.0522 61.0253C44.899 61.2076 44.7516 61.3977 44.6139 61.5936L43.9796 61.227L43.3473 62.319L43.9777 62.6817C43.8749 62.8989 43.7837 63.12 43.7003 63.3469L42.9982 63.153L42.6743 64.3632L43.3706 64.5572C43.3299 64.7783 43.2969 65.0033 43.2775 65.2302C43.2775 65.2438 43.2775 65.2593 43.2775 65.2729H42.5715V66.5258H43.2833C43.3027 66.7683 43.3338 67.0088 43.3745 67.2435L42.6898 67.4374L43.0137 68.6477L43.6926 68.4654C43.774 68.6962 43.8671 68.9192 43.968 69.1384L43.3629 69.4875L43.9893 70.5736L44.5925 70.2245C44.7302 70.4185 44.8776 70.6124 45.0347 70.8064L44.5421 71.2971L45.4285 72.1835L45.9172 71.6947C46.1112 71.8518 46.3051 72.0011 46.4991 72.1389L46.1539 72.7362L47.24 73.3627L47.5814 72.7808C47.8005 72.8836 48.0255 72.9748 48.2563 73.0621L48.0798 73.7215L49.2901 74.0454L49.4666 73.384C49.7052 73.4267 49.9476 73.4597 50.192 73.4791V74.1502H51.4449V73.4655C51.6882 73.4466 51.9303 73.4149 52.1703 73.3705L52.3468 74.0318L53.5571 73.7079L53.3806 73.0485C53.6114 72.9651 53.8364 72.8701 54.0555 72.7673L54.3969 73.3491L55.483 72.7227L55.1378 72.1272C55.3318 71.9876 55.5257 71.8382 55.7197 71.6811L56.2084 72.1699L57.0948 71.2835L56.6041 70.7928C56.7593 70.5989 56.9067 70.4049 57.0444 70.211L57.6476 70.5601L58.274 69.4739L57.6689 69.1248C57.7717 68.9057 57.8629 68.6826 57.9443 68.4518L58.6231 68.6341L58.947 67.4238L58.2624 67.2299C58.3031 66.9952 58.3342 66.7547 58.3535 66.5123L59.0576 66.5258ZM50.8146 70.8355C49.5141 70.8339 48.2674 70.3167 47.3478 69.3971C46.4283 68.4776 45.911 67.2308 45.9095 65.9304C45.9095 65.7869 45.9095 65.6375 45.9308 65.4746C46.0446 64.2581 46.6084 63.1279 47.5117 62.3052C48.415 61.4825 49.5928 61.0265 50.8146 61.0265C52.0364 61.0265 53.2142 61.4825 54.1175 62.3052C55.0208 63.1279 55.5845 64.2581 55.6983 65.4746C55.7138 65.6356 55.7197 65.7849 55.7197 65.9323C55.7181 67.2339 55.1997 68.4816 54.2784 69.4011C53.3571 70.3206 52.1084 70.8365 50.8068 70.8355H50.8146Z" fill="#aaa"/>
<path d="M53.0624 65.9304C53.0624 65.8644 53.0585 65.7927 53.0508 65.7151C52.9987 65.1559 52.7398 64.6363 52.3247 64.2581C51.9096 63.8798 51.3683 63.6702 50.8067 63.6702C50.2451 63.6702 49.7038 63.8798 49.2887 64.2581C48.8736 64.6363 48.6147 65.1559 48.5627 65.7151C48.5627 65.7965 48.551 65.8644 48.551 65.9265C48.551 66.5247 48.7887 67.0985 49.2117 67.5215C49.6347 67.9445 50.2085 68.1822 50.8067 68.1822C51.405 68.1822 51.9787 67.9445 52.4017 67.5215C52.8247 67.0985 53.0624 66.5247 53.0624 65.9265V65.9304Z" fill="#aaa"/>
<path d="M106.282 66.5257V65.2728H105.565C105.566 65.2586 105.566 65.2443 105.565 65.2301C105.543 65.0032 105.512 64.7782 105.472 64.5571L106.166 64.3631L105.842 63.1529L105.142 63.3468C105.059 63.1199 104.967 62.8988 104.863 62.6816L105.493 62.3189L104.867 61.2327L104.232 61.5993C104.097 61.4053 103.949 61.2114 103.794 61.031L104.314 60.5112L103.427 59.6248L102.906 60.1466C102.723 59.9934 102.533 59.8479 102.337 59.7102L102.706 59.0721L101.628 58.4398L101.257 59.0818C101.042 58.9787 100.821 58.8874 100.596 58.8083L100.79 58.0907L99.5794 57.7668L99.3855 58.4863C99.1506 58.4434 98.9136 58.4123 98.6756 58.3932V57.664H97.4227V58.4088C97.1846 58.4278 96.9477 58.4589 96.7128 58.5019L96.5188 57.7823L95.3085 58.1062L95.5025 58.8238C95.2775 58.9053 95.0564 58.9964 94.8411 59.0973L94.4629 58.4398L93.3768 59.0663L93.7472 59.7063C93.5533 59.8421 93.3593 59.9875 93.177 60.1408L92.6553 59.619L91.7689 60.5054L92.2906 61.0252C92.1355 61.2075 91.9881 61.3976 91.8504 61.5935L91.2161 61.2269L90.5897 62.313L91.22 62.6757C91.1172 62.893 91.026 63.1141 90.9426 63.341L90.2405 63.147L89.9166 64.3573L90.6129 64.5513C90.5722 64.7724 90.5392 64.9974 90.5198 65.2243C90.5198 65.2379 90.5198 65.2534 90.5198 65.267H89.7964V66.5199H90.5082C90.5276 66.7623 90.5586 67.0028 90.5994 67.2375L89.9147 67.4315L90.2386 68.6417L90.9174 68.4594C90.9989 68.6902 91.092 68.9133 91.1929 69.1325L90.5877 69.4816L91.2142 70.5677L91.8174 70.2186C91.9551 70.4125 92.1025 70.6065 92.2596 70.8005L91.767 71.2912L92.6533 72.1775L93.1421 71.6888C93.336 71.8459 93.53 71.9952 93.724 72.1329L93.3787 72.7303L94.4649 73.3568L94.8062 72.7749C95.0254 72.8777 95.2504 72.9689 95.4812 73.0561L95.3047 73.7156L96.5149 74.0395L96.6914 73.3781C96.93 73.4208 97.1724 73.4537 97.4168 73.4731V74.15H98.6698V73.4654C98.9131 73.4465 99.1552 73.4148 99.3952 73.3703L99.5717 74.0317L100.782 73.7078L100.605 73.0484C100.836 72.965 101.061 72.8699 101.28 72.7671L101.622 73.349L102.708 72.7225L102.363 72.1271C102.557 71.9875 102.751 71.8381 102.945 71.681L103.433 72.1698L104.32 71.2834L103.829 70.7927C103.984 70.5987 104.132 70.4048 104.269 70.2108L104.872 70.56L105.499 69.4738L104.894 69.1247C104.997 68.9055 105.088 68.6825 105.169 68.4517L105.848 68.634L106.172 67.4237L105.487 67.2298C105.528 66.9951 105.559 66.7546 105.578 66.5121L106.282 66.5257ZM98.0414 70.8354C96.7406 70.8343 95.4934 70.3173 94.5734 69.3977C93.6534 68.4781 93.1359 67.2311 93.1343 65.9303C93.1343 65.7868 93.1343 65.6374 93.1576 65.4745C93.269 64.2565 93.8316 63.124 94.7349 62.2995C95.6383 61.4749 96.8173 61.0178 98.0404 61.0178C99.2635 61.0178 100.442 61.4749 101.346 62.2995C102.249 63.124 102.812 64.2565 102.923 65.4745C102.939 65.6355 102.945 65.7848 102.945 65.9322C102.943 67.2318 102.426 68.4778 101.507 69.3969C100.589 70.316 99.3429 70.8333 98.0433 70.8354H98.0414Z" fill="#aaa"/>
<path d="M100.297 65.9303C100.297 65.8643 100.293 65.7926 100.285 65.715C100.233 65.1558 99.9744 64.6362 99.5593 64.258C99.1442 63.8797 98.6029 63.6701 98.0413 63.6701C97.4798 63.6701 96.9384 63.8797 96.5233 64.258C96.1082 64.6362 95.8493 65.1558 95.7973 65.715C95.7973 65.7964 95.7856 65.8643 95.7856 65.9264C95.7856 66.5246 96.0233 67.0984 96.4463 67.5214C96.8693 67.9444 97.4431 68.1821 98.0413 68.1821C98.6396 68.1821 99.2133 67.9444 99.6363 67.5214C100.059 67.0984 100.297 66.5246 100.297 65.9264V65.9303Z" fill="#aaa"/>
<path d="M91.2821 33.9999L75 38.3627L75.4754 40.1369L91.7575 35.7741L91.2821 33.9999Z" fill="#aaa"/>
<path d="M35.2034 16.5017L18.7822 19.0486L19.0762 20.9439L35.4991 18.3994L35.2034 16.5017Z" fill="#aaa"/>
<path fill-rule="evenodd" clip-rule="evenodd" d="M39.9447 18.6111L38.5 21.5005H41L37.5 25.0005L37.1424 26.1925L22.5762 28.4363L22.7065 29.2837L36.8696 27.102L36 30.0005L38.5 33.5005L38.2778 34.0559L3.02585 39.5008L0.729004 24.6631L39.9447 18.6111ZM2.62799 27.0522C2.73546 27.1517 2.87004 27.2171 3.01468 27.2401C3.20814 27.2708 3.40589 27.2235 3.56457 27.1087C3.72325 26.9938 3.8299 26.8208 3.86119 26.6274C3.88457 26.4828 3.86457 26.3346 3.80365 26.2014C3.74273 26.0682 3.64363 25.9561 3.51896 25.8793C3.39429 25.8024 3.24963 25.7643 3.10329 25.7698C2.95694 25.7752 2.81549 25.8239 2.69685 25.9098C2.57822 25.9956 2.48774 26.1148 2.43685 26.2521C2.38596 26.3894 2.37696 26.5387 2.41099 26.6812C2.44502 26.8236 2.52053 26.9528 2.62799 27.0522ZM4.28501 37.7944C4.39184 37.8938 4.52576 37.9593 4.66981 37.9826L4.66877 37.989C4.76493 38.0043 4.86314 38.0004 4.95781 37.9776C5.05247 37.9549 5.14172 37.9137 5.22042 37.8563C5.29913 37.799 5.36577 37.7268 5.41649 37.6437C5.46721 37.5606 5.50104 37.4683 5.51602 37.3721C5.53933 37.228 5.51939 37.0803 5.45873 36.9475C5.39807 36.8148 5.29939 36.7031 5.17522 36.6264C5.05105 36.5497 4.90693 36.5116 4.7611 36.5169C4.61527 36.5221 4.47429 36.5705 4.35595 36.6559C4.23761 36.7413 4.14722 36.8598 4.09626 36.9966C4.0453 37.1333 4.03605 37.2821 4.06964 37.4241C4.10324 37.5661 4.17818 37.695 4.28501 37.7944Z" fill="#aaa"/>
<path d="M70.2868 28.3717L69.5231 35.4054L42 32.4058L44.6719 31.3787L43.9047 26.5144L46.1061 25.7264L70.2868 28.3717Z" fill="#aaa"/>
<path d="M47.9516 25.0658L70.3803 27.5194L71.1412 20.4868L47.9449 17.9558L51.348 23.8501L47.9516 25.0658Z" fill="#aaa"/>
<rect x="18" y="39.0261" width="40" height="4" transform="rotate(-7.21843 18 39.0261)" fill="#aaa"/>
<path d="M33.8868 15.4325L39.7277 16.9467L42.128 31.7L44.6972 21.0039L52.1794 22.8482L47.5496 17.1604L50.5037 7.90078L46.2024 12.1326L39.6933 2.32937L41.8103 10.2302L31.5774 6.8135L36.7392 11.589L33.8868 15.4325Z" fill="#EC1F1F"/>
</svg>
