<svg width="99" height="44" viewBox="0 0 99 44" fill="none" xmlns="http://www.w3.org/2000/svg">
<path d="M10.5831 23.4601L5.36579 17.134L2.21759 17.4409L3.37589 25.747L2.53439 26.143L3.02939 30.2317L12.5433 30.4792L11.6523 23.1631L10.5831 23.4601ZM9.91979 28.3606H9.82079L3.42539 28.5586L9.68219 27.2122L9.78119 27.1924C10.1079 27.1528 10.395 27.3805 10.4346 27.7072C10.4742 28.024 10.2366 28.321 9.91979 28.3606Z" fill="#aaa"/>
<path d="M25.1559 20.8168L26.1954 29.4001C20.394 30.0733 16.5528 30.5287 16.5528 30.5287L13.2858 30.4396L12.3849 23.0245L16.4637 21.8662C16.4637 21.8563 19.8891 21.4504 25.1559 20.8168Z" fill="#aaa"/>
<path d="M26.0271 20.7079L27.0666 29.2912C26.8686 29.311 26.6706 29.3407 26.4825 29.3605L25.443 20.7772L26.0271 20.7079Z" fill="#aaa"/>
<path d="M22.9779 30.2119L22.6017 35.1223C18.2556 35.944 14.7609 35.1817 14.7609 35.1817L11.583 34.6768L11.1771 31.3207L10.6227 30.7564L16.6122 30.9544C16.6023 30.9544 19.0476 30.6673 22.9779 30.2119Z" fill="#aaa"/>
<path d="M55.737 5.1055L55.4499 11.392L47.9754 6.4717L51.1137 12.2533L47.1339 14.0452L51.7473 18.1735L50.5593 30.7762L55.737 22.3513L61.2018 24.8659L59.0238 19.3417L63.9738 12.4909L58.7466 14.3422L55.737 5.1055Z" fill="#FF0000"/>
<path d="M85.5954 23.7274L84.1203 32.4295C81.7047 32.0137 69.1614 29.8258 55.9152 27.5191L57.2022 27.0835L56.628 26.8756L78.4674 30.5782C79.1109 30.6871 79.7148 30.2515 79.8237 29.6179C79.9326 28.9744 79.497 28.3705 78.8634 28.2616L57.9843 24.7174L53.4402 25.1431L50.6088 24.6679L51.9354 24.3016L49.3317 22.0741L60.3306 22.3018L57.123 20.0941C57.123 20.0941 58.8258 19.8565 61.1127 19.5496C62.1819 19.7278 63.2412 19.9159 64.2807 20.0941L63.4392 25.0441L63.7263 25.0936L64.5678 20.1436L65.1519 20.2426L64.3104 25.1926L64.5975 25.2421L65.439 20.2921C68.7753 20.8663 71.9334 21.4009 74.7153 21.8761L73.8738 26.8162L74.1609 26.8657L75.0024 21.9256C80.3484 22.8364 84.3084 23.5096 85.5954 23.7274Z" fill="#aaa"/>
<path d="M96.6834 30.0931C96.5844 30.6673 96.2874 31.2118 95.8122 31.6078C94.9707 32.3107 93.9114 32.6869 92.8125 32.677C92.8125 32.677 87.9516 33.0829 84.8331 32.5582L86.3082 23.8561C89.7138 24.4303 93.7332 26.2123 93.7332 26.2123C94.7925 26.5489 95.6835 27.2518 96.2577 28.2022L96.3567 28.3606C96.6834 28.9051 96.7824 29.5189 96.6834 30.0931Z" fill="#aaa"/>
<path d="M54.1134 20.1733L43.5006 23.0938L46.6389 24.4897L45.4707 25.2223L30.3534 27.0538C30.0267 27.0934 29.799 27.3904 29.8386 27.7072C29.8782 28.0339 30.1752 28.2616 30.492 28.222L51.876 25.6282L52.4898 25.6678L51.381 26.4499C42.8373 27.4498 33.9966 28.4794 27.3636 29.2516L26.3241 20.6683C33.7788 19.7674 44.352 18.5002 54.0936 17.332C51.9948 18.2824 50.4207 18.9952 50.4207 18.9952L54.1134 20.1733Z" fill="#aaa"/>
</svg>
