<svg width="113" height="47" viewBox="0 0 113 47" fill="none" xmlns="http://www.w3.org/2000/svg">
<path d="M26.1461 1.57007L22.9428 2.23054L24.9059 11.756H28.2413L26.1461 1.57007Z" fill="#aaa"/>
<path d="M50.8261 5.02295L47.6264 5.68342L49.894 16.7023H53.2331L50.8261 5.02295Z" fill="#aaa"/>
<path d="M67.7781 13.8916L72.2877 16.6252V14.941L68.523 12.6587L70.5154 9.37104L69.4477 8.72157L64.7143 16.5335L64.9895 16.7023H66.0756L67.7781 13.8916Z" fill="#aaa"/>
<path d="M37.0625 28.9467C34.6979 28.9464 32.4182 29.8288 30.67 31.4209C28.9217 33.0131 27.8307 35.2005 27.6104 37.5548C27.5809 37.8474 27.5662 38.1414 27.5663 38.4355C27.5663 40.954 28.5668 43.3694 30.3477 45.1502C32.1286 46.9311 34.5421 45.9999 37.0606 45.9999C39.5792 45.9999 41.9964 46.9311 43.7773 45.1502C45.5581 43.3694 46.5586 40.954 46.5586 38.4355C46.5588 38.1414 46.5441 37.8474 46.5146 37.5548C46.2943 35.2005 45.2032 33.0131 43.4549 31.4209C41.7067 29.8288 39.4271 28.9464 37.0625 28.9467ZM37.0625 44.6072C35.4282 44.6053 33.8614 43.9552 32.7057 42.7995C31.5501 41.6439 30.9 40.0771 30.898 38.4428C30.898 38.263 30.898 38.0759 30.9237 37.8667C31.0685 36.3394 31.7777 34.9209 32.9125 33.8886C34.0474 32.8562 35.5265 32.2841 37.0606 32.2841C38.5948 32.2841 40.0738 32.8562 41.2087 33.8886C42.3436 34.9209 43.0527 36.3394 43.1975 37.8667C43.1975 38.0685 43.2269 38.2593 43.2269 38.4428C43.2249 40.0771 42.5749 41.6439 41.4192 42.7995C40.2636 43.9552 38.6968 44.6053 37.0625 44.6072Z" fill="#aaa"/>
<path d="M37.0626 35.6064C36.3561 35.6036 35.6742 35.8658 35.1518 36.3414C34.6293 36.817 34.3043 37.4713 34.2409 38.1749C34.2409 38.2728 34.2409 38.3608 34.2409 38.4391C34.2409 39.1904 34.5393 39.9109 35.0706 40.4421C35.6018 40.9734 36.3223 41.2718 37.0736 41.2718C37.8249 41.2718 38.5454 40.9734 39.0766 40.4421C39.6078 39.9109 39.9063 39.1904 39.9063 38.4391C39.9114 38.3487 39.9114 38.258 39.9063 38.1676C39.8434 37.4605 39.5152 36.8034 38.9877 36.3283C38.4602 35.8532 37.7724 35.5953 37.0626 35.6064Z" fill="#aaa"/>
<path d="M86.7485 28.9467C84.3839 28.9464 82.1043 29.8288 80.3561 31.4209C78.6078 33.0131 77.5167 35.2005 77.2964 37.5548C77.2707 37.8447 77.2524 38.1383 77.2524 38.4355C77.2524 40.954 78.2529 43.3694 80.0337 45.1502C80.9999 46.1165 84.23 45.9999 86.7485 45.9999C89.267 45.9999 92.4999 45.9999 93.4633 45.1502C95.2442 43.3694 96.2446 40.954 96.2446 38.4355C96.2446 38.1383 96.2447 37.8447 96.2043 37.5548C95.9831 35.2002 94.8913 33.0128 93.1425 31.4207C91.3936 29.8286 89.1135 28.9463 86.7485 28.9467ZM86.7485 44.6072C85.1142 44.6053 83.5474 43.9552 82.3918 42.7995C81.2361 41.6439 80.5861 40.0771 80.5841 38.4428C80.5841 38.263 80.5841 38.0759 80.6135 37.8667C80.7583 36.3394 81.4674 34.9209 82.6023 33.8886C83.7372 32.8562 85.2162 32.2841 86.7503 32.2841C88.2845 32.2841 89.7636 32.8562 90.8985 33.8886C92.0333 34.9209 92.7425 36.3394 92.8873 37.8667C92.8873 38.0685 92.9129 38.2593 92.9129 38.4428C92.911 40.0771 92.2609 41.6439 91.1053 42.7995C89.9496 43.9552 88.3828 44.6053 86.7485 44.6072Z" fill="#aaa"/>
<path d="M86.7484 35.6064C86.042 35.6028 85.3601 35.8649 84.8381 36.3407C84.3161 36.8165 83.9921 37.4712 83.9304 38.1749C83.9255 38.2629 83.9255 38.3511 83.9304 38.4391C83.9304 39.1903 84.2288 39.9108 84.76 40.4421C85.2913 40.9733 86.0118 41.2718 86.763 41.2718C87.5143 41.2718 88.2348 40.9733 88.7661 40.4421C89.2973 39.9108 89.5957 39.1903 89.5957 38.4391C89.5957 38.3547 89.5957 38.2666 89.5957 38.1675C89.5311 37.4604 89.2019 36.8038 88.674 36.3289C88.1461 35.8541 87.4583 35.596 86.7484 35.6064Z" fill="#aaa"/>
<path d="M20.7645 43.28L20.7645 39.1007C20.7645 38.4927 20.2717 37.9999 19.6637 37.9999L1.10077 37.9999C0.492825 37.9999 -1.52803e-05 38.4927 -1.53069e-05 39.1007L-1.54896e-05 43.28C-1.55162e-05 43.8879 0.492824 44.3808 1.10077 44.3808L19.6637 44.3808C20.2717 44.3808 20.7645 43.8879 20.7645 43.28Z" fill="#aaa"/>
<path fill-rule="evenodd" clip-rule="evenodd" d="M102.497 18.192C102.493 17.2591 102.137 16.3621 101.499 15.6814C100.861 15.0007 99.9894 14.5867 99.0587 14.5227L92.735 14.0839L93.7015 16.0749L101.984 17.4735L92.655 22.2729L90.3884 15.5155L85.5929 18.6899L80.6233 17.8508L85.4219 13.5765L75.2083 12.8679L63 4L61.0553 4.4917L73.2599 13.2311V17.6636H48.5068L42.7143 20.76L46.6429 24.96V30L40.3571 24.96L38 20.76L42.3444 17.6636H39.1355L36.9082 12.7174H18.037V22.1438H20.7744V35.3937H24.0767C23.9997 35.7092 23.9336 36.0284 23.8859 36.355C23.7769 37.0432 23.7218 37.7388 23.7208 38.4355V39.5363H25.9224V38.4355C25.9224 36.9702 26.211 35.5192 26.7718 34.1654C27.3325 32.8116 28.1544 31.5815 29.1906 30.5454C30.2267 29.5092 31.4568 28.6873 32.8106 28.1266C34.1644 27.5658 35.6154 27.2772 37.0807 27.2772C38.546 27.2772 39.997 27.5658 41.3508 28.1266C42.7046 28.6873 43.9347 29.5092 44.9708 30.5454C46.007 31.5815 46.8289 32.8116 47.3897 34.1654C47.9504 35.5192 48.239 36.9702 48.239 38.4355V39.5363H50.4406V38.4355C50.4397 37.7388 50.3845 37.0432 50.2755 36.355C50.2241 36.0284 50.1581 35.7092 50.0847 35.3937H73.7626C73.6892 35.7092 73.6232 36.0284 73.5718 36.355C73.4629 37.0432 73.4076 37.7388 73.4067 38.4355V39.5363H75.6083V38.4355C75.6083 35.4761 76.7839 32.638 78.8765 30.5454C80.9691 28.4528 83.8072 27.2772 86.7666 27.2772C89.726 27.2772 92.5641 28.4528 94.6567 30.5454C96.7493 32.638 97.9249 35.4761 97.9249 38.4355V39.5363H100.127V38.4355C100.126 37.7388 100.07 37.0432 99.9614 36.355C99.9137 36.0284 99.8476 35.7092 99.7706 35.3937H100.981L101.117 34.2195H105.975V29.2292H105.19V23.4391H103.774V29.2292H101.704L101.943 27.1818L102.42 23.1125L102.53 22.1512L102.497 18.192ZM46.797 22.3053V21.2485H50.9947V22.3053H46.797ZM54.6493 21.2485H74.4635V22.3053H54.6493V21.2485Z" fill="#aaa"/>
<path d="M99.9131 19.5542L99.8416 14.7495L110.662 9.78934L101.907 10.0766L101.742 3.94194L98.3529 8.69863L90.6191 8.38688L94.7772 10.7954L88.6254 17.8645L94.2444 14.5696L93.7832 23.1486L96.3592 18.1762L99.9131 19.5542Z" fill="#EC1F1F"/>
<rect x="75" y="13" width="26" height="1" transform="rotate(-30 75 13)" fill="#aaa"/>
</svg>
