<svg width="132" height="57" viewBox="0 0 132 57" fill="none" xmlns="http://www.w3.org/2000/svg">
<path d="M112.047 45.1251L111.547 50.7062L115.732 51.0793L115.808 50.2332L120.205 50.6252L120.294 49.6378L115.896 49.244L115.951 48.643L131.665 50.0486L131.754 49.0594L116.039 47.6556L116.092 47.0546L120.49 47.4465L120.579 46.4592L116.181 46.0653L116.322 44.492L112.691 45.1628L112.047 45.1251Z" fill="#aaa"/>
<path d="M39.3136 44.1245L54.8642 46.3573L55.2014 43.9983L39.7244 41.2567L39.3136 44.1245Z" fill="#aaa"/>
<path d="M16.2748 38.9999L16.9999 38.0588L12.9999 35.9999L14.2475 37.9564L16.2748 38.9999Z" fill="#aaa"/>
<path d="M0.632927 27.9999L-0.00012207 29.0422L2.99988 30.9999L2.25977 29.0615L0.632927 27.9999Z" fill="#aaa"/>
<path d="M2.99988 41.3087L3.99642 41.9999L5.99988 38.4942L5.46354 36.9999L2.99988 41.3087Z" fill="#aaa"/>
<path d="M13.9999 25.7043L12.8925 24.9999L9.99988 29.6417L10.6997 30.9999L13.9999 25.7043Z" fill="#aaa"/>
<path d="M67.5131 24.766L71.1779 24.5926C73.2204 24.4946 72.8737 17.0557 70.8237 17.1631L67.1607 17.3383L67.5131 24.766Z" fill="#aaa"/>
<path d="M66.1262 24.8319L65.772 17.4043L49.2812 18.19C48.2963 18.237 47.3703 18.6733 46.707 19.403C46.0438 20.1327 45.6975 21.096 45.7445 22.081C45.7915 23.0659 46.2278 23.9919 46.9575 24.6552C47.6872 25.3184 48.6505 25.6646 49.6355 25.6176L66.1262 24.8319Z" fill="#aaa"/>
<path d="M122.768 40.8309C122.799 41.5089 123.03 42.1625 123.432 42.7091C123.834 43.2556 124.39 43.6705 125.028 43.9013C125.666 44.132 126.359 44.1681 127.017 44.0052C127.676 43.8422 128.272 43.4874 128.729 42.9857C129.186 42.4841 129.484 41.858 129.585 41.187C129.686 40.5159 129.586 39.8299 129.297 39.2159C129.008 38.6018 128.543 38.0873 127.961 37.7375C127.38 37.3877 126.707 37.2184 126.03 37.2509C125.123 37.2938 124.27 37.695 123.658 38.3662C123.047 39.0374 122.727 39.9238 122.768 40.8309Z" fill="#aaa"/>
<path fill-rule="evenodd" clip-rule="evenodd" d="M84.733 8.83664L103.1 7.65605L101.233 10.6991L84.8234 10.4307L84.8555 11.0977L83.6891 11.1524L83.8983 15.5256L80.1204 15.7141L80.2108 17.6435L80.273 18.7533L82.4719 18.6497L102.283 21.7945L111.615 26.8065L114.442 31.4474L125.892 36.1316C125.181 36.179 124.49 36.3934 123.877 36.7575C123.264 37.1217 122.746 37.6251 122.364 38.2272C121.982 38.8292 121.747 39.5128 121.679 40.2225C121.611 40.9322 121.711 41.648 121.971 42.3119L112.629 44.0397L88.997 42.6642L83.2426 42.4758L83.9491 43.9587L88.1792 43.7589L89.9259 43.6742V43.8419L90.0503 46.4515L86.6247 46.6154L86.6907 48.0041L90.1162 47.8402L90.2481 50.6175L67.8917 51.6896L67.7598 48.9123L71.2306 48.7465L71.1646 47.3578L67.6939 47.5236L67.5601 44.7463L73.9514 44.441L70.5598 37.3431L69.0675 37.4129L71.2852 42.0688L64.0818 41.8201L59.1583 43.6459L39.3099 40.0263L28.859 39.489L29.9999 39L28.9999 34.5L31.9999 33L31.7755 32.7009L48.9722 30.7596L48.878 29.9306L31.195 31.9268L30.4999 31L33.4999 30.5L30.4999 29.5L29.3951 28.6162L47.8021 26.4429C48.4045 26.6641 49.0454 26.7616 49.6863 26.7293L71.2061 25.6948C72.836 25.6176 73.7611 23.7202 73.6198 20.745C73.595 20.1827 73.5263 19.6233 73.4144 19.0718L78.0213 18.8513L77.8763 15.8121L74.1078 16.0005L73.8987 11.6253L72.7342 11.6818L72.7022 11.0148L25.344 13.7978L23.1865 10.9394L72.6249 9.4132L72.5891 8.67271L77.5352 8.43718L77.4448 6.56424L78.1853 6.52845L77.9177 0.934166L78.6582 0.898376L78.9239 6.49453L79.6644 6.45874L79.753 8.33165L84.6972 8.09612L84.733 8.83664ZM90.6155 37.1377L114.053 38.777L114.112 37.9442L90.674 36.3068L90.6155 37.1377ZM101.682 31.2721L112.299 32.1935L110.238 28.2461L102.799 24.2101L101.682 31.2721ZM100.28 31.1497L101.465 23.6561L89.9504 21.8793L91.1563 30.3583L100.28 31.1497ZM75.0179 28.0068L61.9998 29.1373L62.1448 30.7992L75.163 29.6687L75.0179 28.0068ZM62.4463 32.7362L62.5914 34.3981L75.6095 33.2676L75.4644 31.6057L62.4463 32.7362ZM78.2475 47.0073L72.461 47.2825L72.5269 48.6711L78.3134 48.396L78.2475 47.0073ZM79.6098 48.3338L85.3943 48.0588L85.3284 46.6701L79.5419 46.9452L79.6098 48.3338ZM74.7484 11.5819L74.9161 15.1224L77.8612 14.983L77.6935 11.4425L74.7484 11.5819ZM80.0714 14.8775L83.0183 14.7361L82.8487 11.1957L79.9037 11.337L80.0714 14.8775Z" fill="#aaa"/>
<path fill-rule="evenodd" clip-rule="evenodd" d="M25.9832 24.6057L11.7379 30.2843L7.97434 28.1109L1.08924 30.3127L2.47931 34.1989L4.34684 40.0402L28.7446 34.829L29.0438 34.3109L27.3014 31.6719L27.9571 28.4679L13.1929 34.2659L12.8892 33.489L28.1565 27.4932L28.198 27.2906L25.8779 26.3593L25.9832 24.6057ZM6.94231 33.4128C6.81977 33.69 6.78217 33.9972 6.83427 34.2957C6.9041 34.6958 7.12992 35.0518 7.46211 35.2854C7.79429 35.519 8.20565 35.6112 8.60576 35.5416C8.9043 35.4897 9.18074 35.3504 9.40011 35.1414C9.61948 34.9323 9.77193 34.6629 9.83817 34.3672C9.90441 34.0715 9.88147 33.7629 9.77224 33.4802C9.66302 33.1976 9.47243 32.9537 9.22457 32.7793C8.97671 32.605 8.68272 32.5081 8.37979 32.5009C8.07685 32.4937 7.77859 32.5765 7.52272 32.7388C7.26684 32.9012 7.06486 33.1357 6.94231 33.4128Z" fill="#aaa"/>
<path d="M20.4627 42.7254L26.3748 41.5187L35.0144 53.7161L32.6216 42.9792L40.1531 41.3476L33.4947 38.2731L32.079 28.6574L30.075 34.349L19.92 28.4036L25.2938 34.5702L14.6004 35.9982L21.3357 38.0194L20.4627 42.7254Z" fill="#EC1F1F"/>
</svg>
